<?xml version="1.0" encoding="UTF-8"?>
<svg version="1.1" xmlns="http://www.w3.org/2000/svg" width="400" height="400">
<path d="M0 0 C0.71142151 -0.00067474 1.42284302 -0.00134949 2.15582275 -0.00204468 C13.90234659 0.0156086 25.25837527 0.68282966 36.75 3.25 C37.50345703 3.41628906 38.25691406 3.58257812 39.03320312 3.75390625 C50.90934131 6.48289119 61.82277233 10.91118619 72.75 16.25 C73.91402344 16.8171875 75.07804688 17.384375 76.27734375 17.96875 C111.72717263 36.18781357 139.98681016 69.07446363 152.81469727 106.77709961 C157.297745 120.83174537 160.82236562 135.33514343 160.98828125 150.1328125 C160.99812042 150.86107742 161.00795959 151.58934235 161.01809692 152.3396759 C161.40676445 188.58713673 154.07879843 222.25610615 132.75 252.25 C132.35506348 252.80719727 131.96012695 253.36439453 131.55322266 253.93847656 C116.25781605 275.16001231 96.86055404 291.27253318 73.75 303.25 C73.14220703 303.56952637 72.53441406 303.88905273 71.90820312 304.21826172 C35.33849113 323.20790858 -9.76411583 325.26770401 -48.79052734 313.08349609 C-89.54502838 299.27211367 -123.72768003 270.15343632 -143.08886719 231.67724609 C-161.3241203 193.55805215 -164.84722312 148.81212304 -151.36572266 108.61328125 C-137.08921443 68.92088021 -109.84494803 36.5396536 -72.25 17.25 C-71.63833984 16.93192383 -71.02667969 16.61384766 -70.39648438 16.28613281 C-55.59791773 8.68021 -39.65876694 3.87464742 -23.25 1.25 C-22.10402344 1.06566406 -20.95804688 0.88132813 -19.77734375 0.69140625 C-13.21930261 -0.09015453 -6.595359 0.00561915 0 0 Z M-0.25 10.25 C-2.2327851 14.01894142 -4.21060441 17.79046653 -6.1875 21.5625 C-6.75146484 22.63435547 -7.31542969 23.70621094 -7.89648438 24.81054688 C-8.43466797 25.83857422 -8.97285156 26.86660156 -9.52734375 27.92578125 C-10.02484131 28.87364502 -10.52233887 29.82150879 -11.03491211 30.7980957 C-12.33980212 33.28956449 -12.33980212 33.28956449 -13.25 36.25 C-4.01 36.25 5.23 36.25 14.75 36.25 C13.36162949 32.08488847 12.2215959 29.00146242 10.1484375 25.2890625 C9.65859375 24.40605469 9.16875 23.52304688 8.6640625 22.61328125 C8.15617187 21.70964844 7.64828125 20.80601563 7.125 19.875 C6.609375 18.94816406 6.09375 18.02132812 5.5625 17.06640625 C4.29617189 14.79170575 3.02524075 12.51971208 1.75 10.25 C1.09 10.25 0.43 10.25 -0.25 10.25 Z M-17.25 12.25 C-17.25 12.58 -17.25 12.91 -17.25 13.25 C-14.61 13.25 -11.97 13.25 -9.25 13.25 C-9.25 12.92 -9.25 12.59 -9.25 12.25 C-11.89 12.25 -14.53 12.25 -17.25 12.25 Z M10.75 12.25 C10.75 12.58 10.75 12.91 10.75 13.25 C13.39 13.25 16.03 13.25 18.75 13.25 C18.75 12.92 18.75 12.59 18.75 12.25 C16.11 12.25 13.47 12.25 10.75 12.25 Z M-24.25 13.25 C-24.25 13.58 -24.25 13.91 -24.25 14.25 C-22.27 14.25 -20.29 14.25 -18.25 14.25 C-18.25 13.92 -18.25 13.59 -18.25 13.25 C-20.23 13.25 -22.21 13.25 -24.25 13.25 Z M19.75 13.25 C19.75 13.58 19.75 13.91 19.75 14.25 C21.73 14.25 23.71 14.25 25.75 14.25 C25.75 13.92 25.75 13.59 25.75 13.25 C23.77 13.25 21.79 13.25 19.75 13.25 Z M-29.25 14.25 C-25.25 15.25 -25.25 15.25 -25.25 15.25 Z M26.75 14.25 C30.75 15.25 30.75 15.25 30.75 15.25 Z M-34.25 15.25 C-30.25 16.25 -30.25 16.25 -30.25 16.25 Z M31.75 15.25 C35.75 16.25 35.75 16.25 35.75 16.25 Z M-14.25 41.25 C-15.20236418 44.10709253 -15.48108832 46.26524386 -15.67396545 49.24858093 C-15.7769973 50.79773697 -15.7769973 50.79773697 -15.8821106 52.37818909 C-15.95332123 53.51110886 -16.02453186 54.64402863 -16.09790039 55.8112793 C-16.17607498 57.00521301 -16.25424957 58.19914673 -16.33479309 59.42926025 C-16.5485483 62.70878921 -16.75865044 65.9885262 -16.96682668 69.26841331 C-17.14167652 72.01593622 -17.31901762 74.76329603 -17.49635214 77.51065952 C-17.91568882 84.00793383 -18.33086543 90.50546486 -18.7434082 97.00317383 C-19.16677498 103.67033461 -19.5967193 110.33704713 -20.03007513 117.00356549 C-20.40326727 122.74796433 -20.77241173 128.49261381 -21.13840669 134.23747569 C-21.35639208 137.65863976 -21.57577324 141.07969795 -21.79899788 144.50052452 C-22.95191725 161.6061052 -22.95191725 161.6061052 -23.54467773 178.73754883 C-23.56400864 179.90465897 -23.58333954 181.0717691 -23.60325623 182.27424622 C-23.19577664 185.70676579 -22.43885527 187.57837999 -20.25 190.25 C-18.27864122 190.96617776 -18.27864122 190.96617776 -16.05395508 190.81762695 C-14.79298759 190.81706047 -14.79298759 190.81706047 -13.50654602 190.81648254 C-12.15172371 190.7777729 -12.15172371 190.7777729 -10.76953125 190.73828125 C-9.84154221 190.73120651 -8.91355316 190.72413177 -7.95744324 190.71684265 C-4.9916442 190.68883943 -2.02772892 190.62609033 0.9375 190.5625 C2.94723837 190.53742478 4.95700632 190.51461026 6.96679688 190.49414062 C11.89525776 190.43899327 16.82230946 190.35267997 21.75 190.25 C22.018125 189.63125 22.28625 189.0125 22.5625 188.375 C23.75 186.25 23.75 186.25 26.75 184.25 C27.15013417 181.54424952 27.15013417 181.54424952 26.98999023 178.39550781 C26.96258759 177.22169556 26.93518494 176.0478833 26.9069519 174.83850098 C26.67444191 169.52246272 26.339485 164.22553169 25.91015625 158.921875 C25.78053749 157.25019257 25.78053749 157.25019257 25.64830017 155.54473877 C25.46652066 153.21193414 25.28238028 150.87931234 25.09594727 148.546875 C24.81211429 144.99517348 24.53530327 141.44297881 24.25976562 137.890625 C24.08113454 135.60934322 23.90211164 133.32809208 23.72265625 131.046875 C23.64032242 129.99667175 23.55798859 128.94646851 23.47315979 127.86444092 C23.39315231 126.86600159 23.31314484 125.86756226 23.23071289 124.83886719 C23.16187393 123.97428894 23.09303497 123.10971069 23.02210999 122.21893311 C22.65592459 118.22356359 22.19306402 114.23757615 21.75 110.25 C14.49 110.25 7.23 110.25 -0.25 110.25 C-1.24 107.28 -1.24 107.28 -2.25 104.25 C-0.27 104.25 1.71 104.25 3.75 104.25 C3.75 103.26 3.75 102.27 3.75 101.25 C4.3171875 101.55679688 4.884375 101.86359375 5.46875 102.1796875 C7.74585477 103.24805515 9.79664255 103.84567973 12.25 104.375 C13.37921875 104.62636719 13.37921875 104.62636719 14.53125 104.8828125 C17.03289933 105.35884814 17.03289933 105.35884814 20.75 105.25 C20.86596274 97.01733564 20.54243484 88.90731893 19.875 80.703125 C19.78621582 79.56591003 19.69743164 78.42869507 19.60595703 77.25701904 C19.32499491 73.67098696 19.03761245 70.08550419 18.75 66.5 C18.55686454 64.04951279 18.36415231 61.59899219 18.171875 59.1484375 C17.70358818 53.18181753 17.22659794 47.21598496 16.75 41.25 C6.52 41.25 -3.71 41.25 -14.25 41.25 Z M127.75 83.25 C128.75 85.25 128.75 85.25 128.75 85.25 Z M131.75 90.25 C132.75 92.25 132.75 92.25 132.75 92.25 Z M-132.25 92.25 C-131.25 94.25 -131.25 94.25 -131.25 94.25 Z M132.75 92.25 C133.75 94.25 133.75 94.25 133.75 94.25 Z M-133.25 94.25 C-132.25 96.25 -132.25 96.25 -132.25 96.25 Z M133.75 94.25 C134.75 96.25 134.75 96.25 134.75 96.25 Z M-134.25 96.25 C-133.25 98.25 -133.25 98.25 -133.25 98.25 Z M134.75 96.25 C135.75 98.25 135.75 98.25 135.75 98.25 Z M-136.25 101.25 C-135.25 103.25 -135.25 103.25 -135.25 103.25 Z M136.75 101.25 C137.75 103.25 137.75 103.25 137.75 103.25 Z M-137.25 103.25 C-136.25 105.25 -136.25 105.25 -136.25 105.25 Z M137.75 103.25 C138.75 105.25 138.75 105.25 138.75 105.25 Z M-138.25 106.25 C-137.25 108.25 -137.25 108.25 -137.25 108.25 Z M4 105.75 C2.80117187 105.88921875 2.80117187 105.88921875 1.578125 106.03125 C0.67320312 106.13953125 0.67320312 106.13953125 -0.25 106.25 C0.08 106.91 0.41 107.57 0.75 108.25 C3.6567772 108.79867002 3.6567772 108.79867002 7.0625 109 C8.21363281 109.09796875 9.36476562 109.1959375 10.55078125 109.296875 C13.66967731 109.25117689 15.16673678 108.9083912 17.75 107.25 C12.95639663 105.11950961 9.13867937 105.14544949 4 105.75 Z M138.75 106.25 C139.75 108.25 139.75 108.25 139.75 108.25 Z M-139.25 108.25 C-138.25 111.25 -138.25 111.25 -138.25 111.25 Z M-49.25 111.25 C-49.91 111.25 -50.57 111.25 -51.25 111.25 C-51.25 111.91 -51.25 112.57 -51.25 113.25 C-50.26 113.25 -49.27 113.25 -48.25 113.25 C-48.58 114.24 -48.91 115.23 -49.25 116.25 C-47.93 117.57 -46.61 118.89 -45.25 120.25 C-45.25 118.27 -45.25 116.29 -45.25 114.25 C-42.94 114.58 -40.63 114.91 -38.25 115.25 C-37.92 116.24 -37.59 117.23 -37.25 118.25 C-39.725 116.765 -39.725 116.765 -42.25 115.25 C-43.24 116.735 -43.24 116.735 -44.25 118.25 C-42.93 118.91 -41.61 119.57 -40.25 120.25 C-40.25 120.91 -40.25 121.57 -40.25 122.25 C-42.56 122.25 -44.87 122.25 -47.25 122.25 C-47.91 120.93 -48.57 119.61 -49.25 118.25 C-49.806875 118.971875 -50.36375 119.69375 -50.9375 120.4375 C-53.22975368 123.2253761 -55.68283259 125.71689119 -58.25 128.25 C-57.15328979 128.279729 -57.15328979 128.279729 -56.03442383 128.31005859 C-52.71009731 128.40552914 -49.38638014 128.51511966 -46.0625 128.625 C-44.33676758 128.67140625 -44.33676758 128.67140625 -42.57617188 128.71875 C-41.46435547 128.75742188 -40.35253906 128.79609375 -39.20703125 128.8359375 C-38.18585205 128.8673584 -37.16467285 128.8987793 -36.11254883 128.93115234 C-33.17128312 129.25876795 -30.92975997 130.02312194 -28.25 131.25 C-27.84913866 123.76725496 -28.72560154 118.15305823 -33.75 112.375 C-37.26804612 109.28183918 -37.26804612 109.28183918 -41.625 107.9375 C-44.7867598 108.31389998 -46.60373546 109.53350408 -49.25 111.25 Z M32.75 114.25 C29.39708117 119.87425093 29.40513953 124.9020129 29.75 131.25 C30.54519043 130.76781006 30.54519043 130.76781006 31.35644531 130.27587891 C34.35488087 128.99074771 36.78807071 128.92816781 40.046875 128.8359375 C41.25214844 128.79726562 42.45742187 128.75859375 43.69921875 128.71875 C45.58060547 128.67234375 45.58060547 128.67234375 47.5 128.625 C48.76972656 128.58632812 50.03945312 128.54765625 51.34765625 128.5078125 C54.4816257 128.41355778 57.61558949 128.32794834 60.75 128.25 C58.69949196 126.1951932 56.64473019 124.1477379 54.5625 122.125 C52.75 120.25 52.75 120.25 51.75 118.25 C48.63214887 118.89644661 48.63214887 118.89644661 47.75 121.25 C46.1 121.25 44.45 121.25 42.75 121.25 C43.41 120.26 44.07 119.27 44.75 118.25 C44.75 117.26 44.75 116.27 44.75 115.25 C42.58125748 115.75603992 40.75032373 116.24983813 38.75 117.25 C38.75 116.26 38.75 115.27 38.75 114.25 C41.06 114.25 43.37 114.25 45.75 114.25 C46.08 115.9 46.41 117.55 46.75 119.25 C48.99197388 117.47510401 49.69326323 116.62824511 50.125 113.75 C49.91113076 111.26719178 49.91113076 111.26719178 48.6875 109.4375 C42.20353632 105.46345775 37.01438519 109.28039349 32.75 114.25 Z M139.75 108.25 C140.75 110.25 140.75 110.25 140.75 110.25 Z M-140.25 111.25 C-139.25 114.25 -139.25 114.25 -139.25 114.25 Z M50.75 111.25 C51.08 111.91 51.41 112.57 51.75 113.25 C52.08 112.59 52.41 111.93 52.75 111.25 C52.09 111.25 51.43 111.25 50.75 111.25 Z M140.75 111.25 C141.75 113.25 141.75 113.25 141.75 113.25 Z M-141.25 114.25 C-140.25 117.25 -140.25 117.25 -140.25 117.25 Z M141.75 114.25 C142.75 117.25 142.75 117.25 142.75 117.25 Z M-142.25 117.25 C-141.25 120.25 -141.25 120.25 -141.25 120.25 Z M142.75 117.25 C143.75 120.25 143.75 120.25 143.75 120.25 Z M-143.25 121.25 C-142.25 124.25 -142.25 124.25 -142.25 124.25 Z M143.75 121.25 C144.75 124.25 144.75 124.25 144.75 124.25 Z M144.75 124.25 C145.75 128.25 145.75 128.25 145.75 128.25 Z M-144.25 125.25 C-143.25 129.25 -143.25 129.25 -143.25 129.25 Z M-145.25 129.25 C-145.25 130.9 -145.25 132.55 -145.25 134.25 C-144.92 134.25 -144.59 134.25 -144.25 134.25 C-144.25 132.6 -144.25 130.95 -144.25 129.25 C-144.58 129.25 -144.91 129.25 -145.25 129.25 Z M145.75 129.25 C146.75 133.25 146.75 133.25 146.75 133.25 Z M-50.25 130.25 C-50.25 131.24 -50.25 132.23 -50.25 133.25 C-48.93 132.92 -47.61 132.59 -46.25 132.25 C-46.58 131.59 -46.91 130.93 -47.25 130.25 C-48.24 130.25 -49.23 130.25 -50.25 130.25 Z M-43.25 130.25 C-42.92 131.24 -42.59 132.23 -42.25 133.25 C-40.93 132.92 -39.61 132.59 -38.25 132.25 C-38.58 131.59 -38.91 130.93 -39.25 130.25 C-40.57 130.25 -41.89 130.25 -43.25 130.25 Z M39.75 130.25 C40.74 131.24 41.73 132.23 42.75 133.25 C43.41 132.26 44.07 131.27 44.75 130.25 C43.1 130.25 41.45 130.25 39.75 130.25 Z M47.75 130.25 C48.74 131.24 49.73 132.23 50.75 133.25 C51.41 132.26 52.07 131.27 52.75 130.25 C51.1 130.25 49.45 130.25 47.75 130.25 Z M55.75 130.25 C55.75 131.24 55.75 132.23 55.75 133.25 C56.74 133.58 57.73 133.91 58.75 134.25 C59.41 132.93 60.07 131.61 60.75 130.25 C59.1 130.25 57.45 130.25 55.75 130.25 Z M63.75 130.25 C63.42 131.24 63.09 132.23 62.75 133.25 C63.74 133.58 64.73 133.91 65.75 134.25 C65.75 132.93 65.75 131.61 65.75 130.25 C65.09 130.25 64.43 130.25 63.75 130.25 Z M-65.25 131.25 C-65.25 132.24 -65.25 133.23 -65.25 134.25 C-63.93 133.92 -62.61 133.59 -61.25 133.25 C-61.58 132.59 -61.91 131.93 -62.25 131.25 C-63.24 131.25 -64.23 131.25 -65.25 131.25 Z M-59.25 131.25 C-58.92 132.24 -58.59 133.23 -58.25 134.25 C-56.27463255 133.90213292 -56.27463255 133.90213292 -54.25 133.25 C-53.92 132.59 -53.59 131.93 -53.25 131.25 C-55.23 131.25 -57.21 131.25 -59.25 131.25 Z M-35.25 131.25 C-34.25 133.25 -34.25 133.25 -34.25 133.25 Z M-146.25 134.25 C-146.25 136.23 -146.25 138.21 -146.25 140.25 C-145.92 140.25 -145.59 140.25 -145.25 140.25 C-145.25 138.27 -145.25 136.29 -145.25 134.25 C-145.58 134.25 -145.91 134.25 -146.25 134.25 Z M146.75 134.25 C146.75 136.23 146.75 138.21 146.75 140.25 C147.08 140.25 147.41 140.25 147.75 140.25 C147.75 138.27 147.75 136.29 147.75 134.25 C147.42 134.25 147.09 134.25 146.75 134.25 Z M-54.25 135.25 C-54.58 136.9 -54.91 138.55 -55.25 140.25 C-53.93 140.58 -52.61 140.91 -51.25 141.25 C-50.92 139.6 -50.59 137.95 -50.25 136.25 C-51.57 135.92 -52.89 135.59 -54.25 135.25 Z M-47.25 135.25 C-47.58 136.9 -47.91 138.55 -48.25 140.25 C-46.6 140.25 -44.95 140.25 -43.25 140.25 C-43.25 138.93 -43.25 137.61 -43.25 136.25 C-44.57 135.92 -45.89 135.59 -47.25 135.25 Z M-39.25 135.25 C-39.58 136.57 -39.91 137.89 -40.25 139.25 C-37.775 139.745 -37.775 139.745 -35.25 140.25 C-35.58 138.6 -35.91 136.95 -36.25 135.25 C-37.24 135.25 -38.23 135.25 -39.25 135.25 Z M-32.25 135.25 C-32.25 136.57 -32.25 137.89 -32.25 139.25 C-31.26 138.92 -30.27 138.59 -29.25 138.25 C-29.58 137.26 -29.91 136.27 -30.25 135.25 C-30.91 135.25 -31.57 135.25 -32.25 135.25 Z M31.75 135.25 C31.42 136.24 31.09 137.23 30.75 138.25 C32.07 138.25 33.39 138.25 34.75 138.25 C34.42 137.26 34.09 136.27 33.75 135.25 C33.09 135.25 32.43 135.25 31.75 135.25 Z M38.75 134.25 C37.76 134.745 37.76 134.745 36.75 135.25 C37.08 136.9 37.41 138.55 37.75 140.25 C39.07 139.92 40.39 139.59 41.75 139.25 C41.40213292 137.27463255 41.40213292 137.27463255 40.75 135.25 C40.09 134.92 39.43 134.59 38.75 134.25 Z M45.75 135.25 C45.42 136.57 45.09 137.89 44.75 139.25 C46.07 139.58 47.39 139.91 48.75 140.25 C49.08 138.6 49.41 136.95 49.75 135.25 C48.43 135.25 47.11 135.25 45.75 135.25 Z M53.75 134.25 C52.76 134.745 52.76 134.745 51.75 135.25 C52.08 136.9 52.41 138.55 52.75 140.25 C54.07 139.92 55.39 139.59 56.75 139.25 C56.40213292 137.27463255 56.40213292 137.27463255 55.75 135.25 C55.09 134.92 54.43 134.59 53.75 134.25 Z M60.75 135.25 C60.42 136.9 60.09 138.55 59.75 140.25 C60.74 140.58 61.73 140.91 62.75 141.25 C63.41 140.59 64.07 139.93 64.75 139.25 C64.4314823 137.14179203 64.4314823 137.14179203 63.75 135.25 C62.76 135.25 61.77 135.25 60.75 135.25 Z M67.75 135.25 C67.42 136.57 67.09 137.89 66.75 139.25 C68.07 139.25 69.39 139.25 70.75 139.25 C71.08 138.26 71.41 137.27 71.75 136.25 C70.43 135.92 69.11 135.59 67.75 135.25 Z M-69.25 136.25 C-69.25 137.57 -69.25 138.89 -69.25 140.25 C-68.59 140.58 -67.93 140.91 -67.25 141.25 C-66.59 140.92 -65.93 140.59 -65.25 140.25 C-65.58 138.93 -65.91 137.61 -66.25 136.25 C-67.24 136.25 -68.23 136.25 -69.25 136.25 Z M-61.25 135.25 C-62.24 135.745 -62.24 135.745 -63.25 136.25 C-62.92 137.9 -62.59 139.55 -62.25 141.25 C-60.93 140.92 -59.61 140.59 -58.25 140.25 C-58.25 138.93 -58.25 137.61 -58.25 136.25 C-59.24 135.92 -60.23 135.59 -61.25 135.25 Z M147.75 140.25 C147.75 143.88 147.75 147.51 147.75 151.25 C148.08 151.25 148.41 151.25 148.75 151.25 C148.75 147.62 148.75 143.99 148.75 140.25 C148.42 140.25 148.09 140.25 147.75 140.25 Z M-147.25 141.25 C-148.87098667 153.81264669 -148.87098667 166.68735331 -147.25 179.25 C-146.92 179.25 -146.59 179.25 -146.25 179.25 C-146.25 166.71 -146.25 154.17 -146.25 141.25 C-146.58 141.25 -146.91 141.25 -147.25 141.25 Z M35.75 141.25 C36.74 142.735 36.74 142.735 37.75 144.25 C37.75 143.26 37.75 142.27 37.75 141.25 C37.09 141.25 36.43 141.25 35.75 141.25 Z M49.75 141.25 C48.76 142.735 48.76 142.735 47.75 144.25 C49.63316159 145.35836423 49.63316159 145.35836423 51.75 146.25 C52.41 145.92 53.07 145.59 53.75 145.25 C53.09 143.93 52.43 142.61 51.75 141.25 C51.09 141.25 50.43 141.25 49.75 141.25 Z M-73.25 142.25 C-73.58 143.57 -73.91 144.89 -74.25 146.25 C-72.93 146.25 -71.61 146.25 -70.25 146.25 C-70.58 144.93 -70.91 143.61 -71.25 142.25 C-71.91 142.25 -72.57 142.25 -73.25 142.25 Z M-58.25 142.25 C-59.24 143.735 -59.24 143.735 -60.25 145.25 C-58.27 146.24 -58.27 146.24 -56.25 147.25 C-55.92 145.93 -55.59 144.61 -55.25 143.25 C-56.24 142.92 -57.23 142.59 -58.25 142.25 Z M-51.25 142.25 C-51.58 143.24 -51.91 144.23 -52.25 145.25 C-49.775 145.745 -49.775 145.745 -47.25 146.25 C-46.92 145.59 -46.59 144.93 -46.25 144.25 C-46.58 143.59 -46.91 142.93 -47.25 142.25 C-48.57 142.25 -49.89 142.25 -51.25 142.25 Z M-43.25 142.25 C-43.58 143.57 -43.91 144.89 -44.25 146.25 C-42.6 145.92 -40.95 145.59 -39.25 145.25 C-39.58 144.26 -39.91 143.27 -40.25 142.25 C-41.24 142.25 -42.23 142.25 -43.25 142.25 Z M-36.25 142.25 C-35.25 144.25 -35.25 144.25 -35.25 144.25 Z M42.75 141.25 C41.76 141.745 41.76 141.745 40.75 142.25 C40.75 143.24 40.75 144.23 40.75 145.25 C42.07 145.58 43.39 145.91 44.75 146.25 C45.08 144.93 45.41 143.61 45.75 142.25 C44.76 141.92 43.77 141.59 42.75 141.25 Z M57.75 142.25 C57.75 143.57 57.75 144.89 57.75 146.25 C58.74 146.25 59.73 146.25 60.75 146.25 C61.08 145.26 61.41 144.27 61.75 143.25 C60.43 142.92 59.11 142.59 57.75 142.25 Z M65.75 141.25 C64.76 141.745 64.76 141.745 63.75 142.25 C64.08 143.57 64.41 144.89 64.75 146.25 C66.07 145.92 67.39 145.59 68.75 145.25 C68.75 144.26 68.75 143.27 68.75 142.25 C67.76 141.92 66.77 141.59 65.75 141.25 Z M71.75 142.25 C72.08 143.57 72.41 144.89 72.75 146.25 C73.74 146.25 74.73 146.25 75.75 146.25 C75.42 144.6 75.09 142.95 74.75 141.25 C73.5263932 141.1754644 73.5263932 141.1754644 71.75 142.25 Z M-65.25 142.25 C-66.24 142.745 -66.24 142.745 -67.25 143.25 C-66.59 144.57 -65.93 145.89 -65.25 147.25 C-64.26 146.92 -63.27 146.59 -62.25 146.25 C-62.25 145.26 -62.25 144.27 -62.25 143.25 C-63.24 142.92 -64.23 142.59 -65.25 142.25 Z M46.75 147.25 C47.18197635 152.0017398 48.07769295 154.17000054 51.75 157.25 C52.74 156.92 53.73 156.59 54.75 156.25 C53.98997083 154.93121422 53.21656347 153.6201316 52.4375 152.3125 C52.00824219 151.58160156 51.57898438 150.85070312 51.13671875 150.09765625 C49.79889746 147.95022588 49.79889746 147.95022588 46.75 147.25 Z M69.75 147.25 C69.42 147.91 69.09 148.57 68.75 149.25 C69.82538743 151.89695382 69.82538743 151.89695382 71.4375 154.75 C72.21673828 156.21953125 72.21673828 156.21953125 73.01171875 157.71875 C74.78558651 160.30182035 75.85480286 161.19032 78.75 162.25 C77.30135931 157.4211977 75.57546261 152.46305635 72.75 148.25 C71.76 147.92 70.77 147.59 69.75 147.25 Z M-70.25 148.25 C-71.44733988 150.36997834 -72.63298713 152.49513676 -73.8125 154.625 C-74.15474609 155.22828125 -74.49699219 155.8315625 -74.84960938 156.453125 C-75.71127095 158.01978241 -76.48718183 159.63290862 -77.25 161.25 C-76.92 161.91 -76.59 162.57 -76.25 163.25 C-71.55732011 159.2090812 -69.4849326 154.98091655 -67.25 149.25 C-68.24 148.92 -69.23 148.59 -70.25 148.25 Z M-62.25 148.25 C-66.59866866 152.92079227 -69.30541579 158.64547471 -72.25 164.25 C-66.65553462 162.2820976 -64.07101614 159.06429767 -60.875 154.125 C-60.10226319 151.80678958 -60.43923337 150.52014655 -61.25 148.25 C-61.58 148.25 -61.91 148.25 -62.25 148.25 Z M-54.25 148.25 C-58.8065527 151.96274665 -60.82400393 157.04007402 -63.25 162.25 C-59.39771012 161.55478845 -57.85074289 160.04527566 -55.421875 156.94921875 C-53.74140848 154.5125423 -52.46779912 151.94197701 -51.25 149.25 C-52.24 148.92 -53.23 148.59 -54.25 148.25 Z M-47.25 148.25 C-48.94547681 150.24526172 -48.94547681 150.24526172 -50.4375 152.75 C-51.23220703 154.00296875 -51.23220703 154.00296875 -52.04296875 155.28125 C-52.44128906 155.9309375 -52.83960938 156.580625 -53.25 157.25 C-52.26 157.745 -52.26 157.745 -51.25 158.25 C-47.85582235 155.12378374 -45.6437282 152.68458973 -44.25 148.25 C-45.24 148.25 -46.23 148.25 -47.25 148.25 Z M-41.25 148.25 C-41.91 149.57 -42.57 150.89 -43.25 152.25 C-41.93 150.93 -40.61 149.61 -39.25 148.25 C-39.91 148.25 -40.57 148.25 -41.25 148.25 Z M41.75 148.25 C42.41 148.91 43.07 149.57 43.75 150.25 C43.75 149.59 43.75 148.93 43.75 148.25 C43.09 148.25 42.43 148.25 41.75 148.25 Z M54.75 147.25 C54.09 147.91 53.43 148.57 52.75 149.25 C57.30414338 156.58465586 57.30414338 156.58465586 63.75 162.25 C64.41 161.92 65.07 161.59 65.75 161.25 C64.67618483 159.47337883 63.590542 157.70390311 62.5 155.9375 C61.89671875 154.95136719 61.2934375 153.96523437 60.671875 152.94921875 C58.87159102 150.42077112 57.33159415 148.923467 54.75 147.25 Z M61.75 148.25 C62.43128203 154.04089728 65.13878709 157.85849794 69.5 161.625 C70.2425 162.16125 70.985 162.6975 71.75 163.25 C72.41 162.92 73.07 162.59 73.75 162.25 C72.51478085 160.09436269 71.26329661 157.95159266 70 155.8125 C69.65195312 155.20083984 69.30390625 154.58917969 68.9453125 153.95898438 C66.88542695 150.41575556 66.88542695 150.41575556 63.484375 148.33984375 C62.91203125 148.31019531 62.3396875 148.28054687 61.75 148.25 Z M76.75 148.25 C77.42965498 154.02706732 80.47605156 158.4034464 84.75 162.25 C85.74 161.92 86.73 161.59 87.75 161.25 C86.10790421 159.08040701 84.46157832 156.91427468 82.8125 154.75 C82.10963867 153.81994141 82.10963867 153.81994141 81.39257812 152.87109375 C80.20209536 151.31233214 78.97858708 149.77890836 77.75 148.25 C77.42 148.25 77.09 148.25 76.75 148.25 Z M-76.25 149.25 C-81.2 155.685 -81.2 155.685 -86.25 162.25 C-85.59 162.91 -84.93 163.57 -84.25 164.25 C-80.25099758 160.58424778 -77.61442362 157.16072598 -75.25 152.25 C-75.58 151.26 -75.91 150.27 -76.25 149.25 Z M148.75 151.25 C148.75 157.19 148.75 163.13 148.75 169.25 C149.08 169.25 149.41 169.25 149.75 169.25 C149.75 163.31 149.75 157.37 149.75 151.25 C149.42 151.25 149.09 151.25 148.75 151.25 Z M-42.1640625 153.75390625 C-44.8428171 156.95938226 -45.68939925 160.20938364 -46.625 164.1875 C-46.81449219 164.89068359 -47.00398438 165.59386719 -47.19921875 166.31835938 C-48.25878332 170.63345629 -48.41819177 173.3211135 -46.25 177.25 C-44.21628185 176.6266771 -44.21628185 176.6266771 -42.25 175.25 C-41.4208847 172.85514401 -41.4208847 172.85514401 -41.203125 170.0234375 C-41.08066406 168.9921875 -40.95820313 167.9609375 -40.83203125 166.8984375 C-40.72246094 165.81820312 -40.61289063 164.73796875 -40.5 163.625 C-40.37496094 162.53703125 -40.24992187 161.4490625 -40.12109375 160.328125 C-39.81419041 157.63681877 -39.52460126 154.94476216 -39.25 152.25 C-40.5246483 152.14702974 -40.5246483 152.14702974 -42.1640625 153.75390625 Z M41.75 152.25 C41.54217751 157.44556236 41.89398305 162.45790815 42.5 167.625 C42.63921875 168.82898438 42.7784375 170.03296875 42.921875 171.2734375 C43.43656412 174.36391912 43.43656412 174.36391912 45.828125 175.6640625 C46.46234375 175.85742188 47.0965625 176.05078125 47.75 176.25 C49.92035284 172.99447075 49.90480871 172.11279621 49.2265625 168.421875 C49.06929687 167.70515625 48.91203125 166.9884375 48.75 166.25 C48.45222656 164.86554688 48.45222656 164.86554688 48.1484375 163.453125 C46.68037943 156.7296916 46.68037943 156.7296916 41.75 152.25 Z M48.75 158.25 C49.74 162.87 50.73 167.49 51.75 172.25 C53.07 172.58 54.39 172.91 55.75 173.25 C58.0273501 170.43490007 58.0273501 170.43490007 57.75 167.25 C65.1056582 169.84936794 71.66683996 172.29859067 77.75 177.25 C78.41 176.26 79.07 175.27 79.75 174.25 C75.68832151 169.55904738 71.49823716 167.47355755 65.8125 165.125 C64.24036975 164.45694137 62.6687442 163.78769365 61.09765625 163.1171875 C60.35402832 162.80362305 59.61040039 162.49005859 58.84423828 162.16699219 C56.96904763 161.34591314 55.13496866 160.43240184 53.30859375 159.5078125 C50.92603487 158.10294168 50.92603487 158.10294168 48.75 158.25 Z M-55.6875 161.9375 C-57.14834023 162.67467196 -58.60927767 163.4116513 -60.0703125 164.1484375 C-60.78477539 164.50905273 -61.49923828 164.86966797 -62.23535156 165.24121094 C-65.58090115 166.91641827 -68.95475008 168.53436449 -72.33203125 170.14453125 C-74.35724755 171.31181478 -75.77602678 172.43587912 -77.25 174.25 C-77.02242269 176.41299211 -77.02242269 176.41299211 -76.25 178.25 C-73.55486297 176.66462527 -71.00474856 175.06606142 -68.5 173.1875 C-64.5137029 170.81105365 -60.78344858 170.01564909 -56.25 169.25 C-55.59 170.9 -54.93 172.55 -54.25 174.25 C-52.93 173.92 -51.61 173.59 -50.25 173.25 C-49.26 168.3 -48.27 163.35 -47.25 158.25 C-49.96892531 158.25 -53.23246071 160.69518096 -55.6875 161.9375 Z M70.75 165.25 C74.64509712 169.14509712 80.84784961 170.04249268 86.1875 170.625 C89.08930194 170.20034606 90.0132628 169.5656496 91.75 167.25 C91.42 166.59 91.09 165.93 90.75 165.25 C89.75419922 165.26740234 89.75419922 165.26740234 88.73828125 165.28515625 C82.65684966 165.34730227 76.62134094 163.74022661 70.75 165.25 Z M-83.25 166.25 C-85.2496695 166.28635763 -87.25059462 166.29876598 -89.25 166.25 C-89.25 167.57 -89.25 168.89 -89.25 170.25 C-81.48308076 171.77791854 -76.45046461 170.38590328 -69.25 167.25 C-69.25 166.92 -69.25 166.59 -69.25 166.25 C-74.25737933 165.33027727 -78.24547917 165.43107841 -83.25 166.25 Z M93.75 169.25 C93.75 170.24 93.75 171.23 93.75 172.25 C92.76 172.745 92.76 172.745 91.75 173.25 C94.225 173.745 94.225 173.745 96.75 174.25 C96.09 172.6 95.43 170.95 94.75 169.25 C94.42 169.25 94.09 169.25 93.75 169.25 Z M147.75 169.25 C147.75 172.88 147.75 176.51 147.75 180.25 C148.08 180.25 148.41 180.25 148.75 180.25 C148.75 176.62 148.75 172.99 148.75 169.25 C148.42 169.25 148.09 169.25 147.75 169.25 Z M-93.25 171.25 C-93.91 172.57 -94.57 173.89 -95.25 175.25 C-93.6 174.92 -91.95 174.59 -90.25 174.25 C-91.24 173.26 -92.23 172.27 -93.25 171.25 Z M80.75 171.25 C81.02617533 173.19074861 81.02617533 173.19074861 81.75 175.25 C84.56509993 177.5273501 84.56509993 177.5273501 87.75 177.25 C87.71877057 175.28243548 87.71877057 175.28243548 86.75 173.25 C83.75384054 171.9454344 83.75384054 171.9454344 80.75 171.25 Z M-85.25 174.25 C-85.25 175.57 -85.25 176.89 -85.25 178.25 C-81.43586998 177.0821734 -81.43586998 177.0821734 -78.9375 174.125 C-78.710625 173.50625 -78.48375 172.8875 -78.25 172.25 C-80.8965335 172.25 -82.8308163 173.23139634 -85.25 174.25 Z M99.75 174.25 C99.42 175.24 99.09 176.23 98.75 177.25 C100.06201173 178.81249809 100.06201173 178.81249809 101.75 180.25 C102.74 180.25 103.73 180.25 104.75 180.25 C103.38016497 177.08884224 102.7609362 176.2572908 99.75 174.25 Z M90.75 175.25 C89.76 176.735 89.76 176.735 88.75 178.25 C87.76 178.58 86.77 178.91 85.75 179.25 C85.75 179.91 85.75 180.57 85.75 181.25 C87.07 181.58 88.39 181.91 89.75 182.25 C90.74 180.27 91.73 178.29 92.75 176.25 C92.09 175.92 91.43 175.59 90.75 175.25 Z M-101.8125 178.625 C-103.47085796 180.13807063 -103.47085796 180.13807063 -103.25 182.25 C-101.93 181.92 -100.61 181.59 -99.25 181.25 C-99.25 179.93 -99.25 178.61 -99.25 177.25 C-100.47177328 177.13989535 -100.47177328 177.13989535 -101.8125 178.625 Z M-89.25 176.25 C-89.91 176.91 -90.57 177.57 -91.25 178.25 C-90.26 178.58 -89.27 178.91 -88.25 179.25 C-88.58 178.26 -88.91 177.27 -89.25 176.25 Z M52.75 177.25 C52.62625 178.36375 52.5025 179.4775 52.375 180.625 C51.75 184.25 51.75 184.25 49.75 186.25 C47.76178687 186.64764263 45.76055661 186.98775349 43.75 187.25 C45.07 188.57 46.39 189.89 47.75 191.25 C48.74 190.92 49.73 190.59 50.75 190.25 C50.75 189.26 50.75 188.27 50.75 187.25 C51.45125 187.745 52.1525 188.24 52.875 188.75 C56.18925206 190.47917499 58.06277109 190.7309429 61.75 190.25 C63.62890434 188.87493901 63.62890434 188.87493901 64.75 187.25 C62.44 187.25 60.13 187.25 57.75 187.25 C56.43 183.95 55.11 180.65 53.75 177.25 C53.42 177.25 53.09 177.25 52.75 177.25 Z M94.75 177.25 C94.75 177.91 94.75 178.57 94.75 179.25 C93.76 179.745 93.76 179.745 92.75 180.25 C95.225 181.24 95.225 181.24 97.75 182.25 C97.75 181.26 97.75 180.27 97.75 179.25 C96.76 178.59 95.77 177.93 94.75 177.25 Z M-94.25 178.25 C-94.91 178.91 -95.57 179.57 -96.25 180.25 C-96.25 181.24 -96.25 182.23 -96.25 183.25 C-94.27463255 182.90213292 -94.27463255 182.90213292 -92.25 182.25 C-91.92 181.59 -91.59 180.93 -91.25 180.25 C-91.91 180.25 -92.57 180.25 -93.25 180.25 C-93.58 179.59 -93.91 178.93 -94.25 178.25 Z M-48.25 178.25 C-48.25 180.23 -48.25 182.21 -48.25 184.25 C-47.59 184.25 -46.93 184.25 -46.25 184.25 C-45.92 182.6 -45.59 180.95 -45.25 179.25 C-46.24 178.92 -47.23 178.59 -48.25 178.25 Z M47.75 178.25 C48.08 180.23 48.41 182.21 48.75 184.25 C49.41 183.26 50.07 182.27 50.75 181.25 C50.42 180.26 50.09 179.27 49.75 178.25 C49.09 178.25 48.43 178.25 47.75 178.25 Z M78.75 178.25 C79.41 179.57 80.07 180.89 80.75 182.25 C81.41 182.25 82.07 182.25 82.75 182.25 C82.42 180.93 82.09 179.61 81.75 178.25 C80.76 178.25 79.77 178.25 78.75 178.25 Z M-146.25 179.25 C-146.25 181.56 -146.25 183.87 -146.25 186.25 C-145.92 186.25 -145.59 186.25 -145.25 186.25 C-145.25 183.94 -145.25 181.63 -145.25 179.25 C-145.58 179.25 -145.91 179.25 -146.25 179.25 Z M-88.25 179.25 C-88.25 180.57 -88.25 181.89 -88.25 183.25 C-86.27463255 182.90213292 -86.27463255 182.90213292 -84.25 182.25 C-83.92 181.59 -83.59 180.93 -83.25 180.25 C-84.9 179.92 -86.55 179.59 -88.25 179.25 Z M-79.25 179.25 C-79.91 180.57 -80.57 181.89 -81.25 183.25 C-78.12802522 181.9410428 -78.12802522 181.9410428 -76.25 179.25 C-77.24 179.25 -78.23 179.25 -79.25 179.25 Z M-52.25 179.25 C-53.24 181.89 -54.23 184.53 -55.25 187.25 C-57.89 187.58 -60.53 187.91 -63.25 188.25 C-61.6712319 189.9589129 -61.6712319 189.9589129 -59.25 191.25 C-55.66280475 190.998267 -52.65677809 190.3855927 -49.25 189.25 C-48.92 189.91 -48.59 190.57 -48.25 191.25 C-45.77733235 190.90555119 -45.77733235 190.90555119 -43.25 190.25 C-42.92 189.59 -42.59 188.93 -42.25 188.25 C-44.89 187.59 -47.53 186.93 -50.25 186.25 C-50.58 183.94 -50.91 181.63 -51.25 179.25 C-51.58 179.25 -51.91 179.25 -52.25 179.25 Z M-43.25 179.25 C-43.58 181.56 -43.91 183.87 -44.25 186.25 C-42.93 186.25 -41.61 186.25 -40.25 186.25 C-40.91 183.94 -41.57 181.63 -42.25 179.25 C-42.58 179.25 -42.91 179.25 -43.25 179.25 Z M44.75 179.25 C44.09 181.23 43.43 183.21 42.75 185.25 C44.07 184.92 45.39 184.59 46.75 184.25 C46.42 182.6 46.09 180.95 45.75 179.25 C45.42 179.25 45.09 179.25 44.75 179.25 Z M107.75 180.25 C107.75 180.91 107.75 181.57 107.75 182.25 C107.09 182.25 106.43 182.25 105.75 182.25 C105.75 182.91 105.75 183.57 105.75 184.25 C106.74 184.25 107.73 184.25 108.75 184.25 C108.42 182.93 108.09 181.61 107.75 180.25 Z M146.75 180.25 C146.75 182.23 146.75 184.21 146.75 186.25 C147.08 186.25 147.41 186.25 147.75 186.25 C147.75 184.27 147.75 182.29 147.75 180.25 C147.42 180.25 147.09 180.25 146.75 180.25 Z M91.75 182.25 C90.76 183.735 90.76 183.735 89.75 185.25 C91.73 186.24 91.73 186.24 93.75 187.25 C94.08 186.59 94.41 185.93 94.75 185.25 C93.76 184.26 92.77 183.27 91.75 182.25 Z M100.75 182.25 C99.43 183.24 98.11 184.23 96.75 185.25 C97.41 185.91 98.07 186.57 98.75 187.25 C99.74 187.25 100.73 187.25 101.75 187.25 C102.08 185.93 102.41 184.61 102.75 183.25 C102.09 182.92 101.43 182.59 100.75 182.25 Z M-108.25 183.25 C-107.92 184.57 -107.59 185.89 -107.25 187.25 C-106.59 186.92 -105.93 186.59 -105.25 186.25 C-105.58 185.26 -105.91 184.27 -106.25 183.25 C-106.91 183.25 -107.57 183.25 -108.25 183.25 Z M-90.25 183.25 C-90.91 183.91 -91.57 184.57 -92.25 185.25 C-92.25 186.24 -92.25 187.23 -92.25 188.25 C-90.6 187.59 -88.95 186.93 -87.25 186.25 C-88.24 185.26 -89.23 184.27 -90.25 183.25 Z M83.75 183.25 C83.75 184.24 83.75 185.23 83.75 186.25 C85.73 186.745 85.73 186.745 87.75 187.25 C87.09 185.93 86.43 184.61 85.75 183.25 C85.09 183.25 84.43 183.25 83.75 183.25 Z M-101.25 184.25 C-101.25 185.9 -101.25 187.55 -101.25 189.25 C-98.77733235 188.90555119 -98.77733235 188.90555119 -96.25 188.25 C-95.92 187.59 -95.59 186.93 -95.25 186.25 C-97.23 185.59 -99.21 184.93 -101.25 184.25 Z M-84.25 184.25 C-84.58 185.9 -84.91 187.55 -85.25 189.25 C-83.93 188.59 -82.61 187.93 -81.25 187.25 C-81.58 186.26 -81.91 185.27 -82.25 184.25 C-82.91 184.25 -83.57 184.25 -84.25 184.25 Z M-145.25 186.25 C-145.25 187.9 -145.25 189.55 -145.25 191.25 C-144.92 191.25 -144.59 191.25 -144.25 191.25 C-144.25 189.6 -144.25 187.95 -144.25 186.25 C-144.58 186.25 -144.91 186.25 -145.25 186.25 Z M-39.25 186.25 C-38.92 187.24 -38.59 188.23 -38.25 189.25 C-37.26 188.92 -36.27 188.59 -35.25 188.25 C-36.57 187.59 -37.89 186.93 -39.25 186.25 Z M145.75 186.25 C145.75 187.9 145.75 189.55 145.75 191.25 C146.08 191.25 146.41 191.25 146.75 191.25 C146.75 189.6 146.75 187.95 146.75 186.25 C146.42 186.25 146.09 186.25 145.75 186.25 Z M-30.25 187.25 C-30.25 190.25 -30.25 190.25 -30.25 190.25 Z M31.75 187.25 C32.75 189.25 32.75 189.25 32.75 189.25 Z M39.75 186.25 C38.76 186.745 38.76 186.745 37.75 187.25 C37.75 187.91 37.75 188.57 37.75 189.25 C38.74 188.92 39.73 188.59 40.75 188.25 C40.42 187.59 40.09 186.93 39.75 186.25 Z M91.75 190.25 C93.06201173 191.81249809 93.06201173 191.81249809 94.75 193.25 C95.74 193.25 96.73 193.25 97.75 193.25 C97.75 191.6 97.75 189.95 97.75 188.25 C94.56509993 187.9726499 94.56509993 187.9726499 91.75 190.25 Z M87.75 189.25 C88.08 190.24 88.41 191.23 88.75 192.25 C88.75 191.26 88.75 190.27 88.75 189.25 C88.42 189.25 88.09 189.25 87.75 189.25 Z M103.75 188.25 C102.76 188.745 102.76 188.745 101.75 189.25 C101.75 189.91 101.75 190.57 101.75 191.25 C102.74 190.92 103.73 190.59 104.75 190.25 C104.42 189.59 104.09 188.93 103.75 188.25 Z M-104.25 190.25 C-103.92 191.24 -103.59 192.23 -103.25 193.25 C-102.26 192.92 -101.27 192.59 -100.25 192.25 C-101.57 191.59 -102.89 190.93 -104.25 190.25 Z M-93.25 190.25 C-93.58 190.91 -93.91 191.57 -94.25 192.25 C-93.59 192.91 -92.93 193.57 -92.25 194.25 C-91.26 192.93 -90.27 191.61 -89.25 190.25 C-90.57 190.25 -91.89 190.25 -93.25 190.25 Z M-87.25 190.25 C-87.58 191.24 -87.91 192.23 -88.25 193.25 C-87.26 192.92 -86.27 192.59 -85.25 192.25 C-85.91 191.59 -86.57 190.93 -87.25 190.25 Z M-144.25 191.25 C-143.25 195.25 -143.25 195.25 -143.25 195.25 Z M144.75 191.25 C145.75 195.25 145.75 195.25 145.75 195.25 Z M98.75 195.25 C96.70393018 195.04548232 94.65868885 194.82636775 92.62087059 194.551548 C86.60055454 193.91919129 80.52911154 194.11157324 74.48168945 194.12060547 C72.94957437 194.11924821 71.41745961 194.11746646 69.88534546 194.11529541 C65.7419632 194.1107547 61.59860599 194.11249811 57.45522332 194.1156745 C53.09198967 194.11822146 48.72875804 194.11585353 44.36552429 194.11428833 C37.0261497 194.11247092 29.68678517 194.11485908 22.34741211 194.11962891 C13.91854928 194.12504431 5.48971075 194.12332705 -2.93915147 194.1178025 C-10.21605181 194.11322741 -17.49294494 194.11264288 -24.76984626 194.11524117 C-29.09752632 194.11678339 -33.42519508 194.11705575 -37.75287437 194.11370468 C-66.36883065 193.39674794 -66.36883065 193.39674794 -94.75541687 195.84713745 C-95.99023552 196.04655441 -95.99023552 196.04655441 -97.25 196.25 C-97.58 195.92 -97.91 195.59 -98.25 195.25 C-103.08873377 194.56870629 -108.09940241 194.04430469 -112.47265625 196.49609375 C-114.52081079 198.31714286 -116.3694161 200.25665382 -118.25 202.25 C-120.05533492 203.82077316 -121.86804015 205.38310997 -123.6875 206.9375 C-127.62648825 210.30626255 -127.62648825 210.30626255 -129.25 215.25 C-129.25 223.17 -129.25 231.09 -129.25 239.25 C-43.45 239.25 42.35 239.25 130.75 239.25 C133.71353196 212.65687795 133.71353196 212.65687795 122.375 201.0625 C115.20031542 194.69699823 115.20031542 194.69699823 106.25 193.0625 C104.78046875 193.04123047 104.78046875 193.04123047 103.28125 193.01953125 C100.580082 192.99319966 100.580082 192.99319966 98.75 195.25 Z M-143.25 195.25 C-142.25 199.25 -142.25 199.25 -142.25 199.25 Z M143.75 196.25 C144.75 199.25 144.75 199.25 144.75 199.25 Z M-142.25 199.25 C-141.25 202.25 -141.25 202.25 -141.25 202.25 Z M142.75 200.25 C143.75 203.25 143.75 203.25 143.75 203.25 Z M-141.25 203.25 C-140.25 206.25 -140.25 206.25 -140.25 206.25 Z M141.75 203.25 C142.75 206.25 142.75 206.25 142.75 206.25 Z M-140.25 206.25 C-139.25 209.25 -139.25 209.25 -139.25 209.25 Z M140.75 206.25 C141.75 209.25 141.75 209.25 141.75 209.25 Z M-139.25 209.25 C-138.25 211.25 -138.25 211.25 -138.25 211.25 Z M139.75 209.25 C140.75 211.25 140.75 211.25 140.75 211.25 Z M-138.25 212.25 C-137.25 214.25 -137.25 214.25 -137.25 214.25 Z M138.75 212.25 C139.75 214.25 139.75 214.25 139.75 214.25 Z M-137.25 214.25 C-136.25 216.25 -136.25 216.25 -136.25 216.25 Z M137.75 214.25 C138.75 216.25 138.75 216.25 138.75 216.25 Z M-136.25 217.25 C-135.25 219.25 -135.25 219.25 -135.25 219.25 Z M136.75 217.25 C137.75 219.25 137.75 219.25 137.75 219.25 Z M-114.25 252.25 C-113.25 254.25 -113.25 254.25 -113.25 254.25 Z M-27.875 263.25 C-28.82246094 264.0853125 -28.82246094 264.0853125 -29.7890625 264.9375 C-30.27117187 265.370625 -30.75328125 265.80375 -31.25 266.25 C-30.92 267.24 -30.59 268.23 -30.25 269.25 C-28.6 268.26 -26.95 267.27 -25.25 266.25 C-25.25 271.53 -25.25 276.81 -25.25 282.25 C-24.26 282.25 -23.27 282.25 -22.25 282.25 C-22.25 274.99 -22.25 267.73 -22.25 260.25 C-25.02042109 260.25 -25.83164956 261.4336885 -27.875 263.25 Z M-12.125 261.3125 C-14.49171059 263.05056386 -14.49171059 263.05056386 -14.5625 265.6875 C-14.459375 266.533125 -14.35625 267.37875 -14.25 268.25 C-14.25 272.25 -14.25 272.25 -15 275.25 C-15.56510901 278.30302214 -15.56510901 278.30302214 -13.6875 280.625 C-10.60734354 282.67843764 -8.8880818 282.71443597 -5.25 282.25 C-2.00821957 280.54705826 -2.00821957 280.54705826 -1.375 277.375 C-0.96160253 274.23360664 -0.96160253 274.23360664 -2.6875 271.875 C-3.203125 271.33875 -3.71875 270.8025 -4.25 270.25 C-3.59 269.59 -2.93 268.93 -2.25 268.25 C-2.57198966 265.15073181 -2.57198966 265.15073181 -3.25 262.25 C-7.60469623 260.3228037 -7.60469623 260.3228037 -12.125 261.3125 Z M2.75 263.25 C2.75 264.24 2.75 265.23 2.75 266.25 C3.74 266.25 4.73 266.25 5.75 266.25 C6.08 265.59 6.41 264.93 6.75 264.25 C7.74 264.25 8.73 264.25 9.75 264.25 C10.08 265.9 10.41 267.55 10.75 269.25 C9.76 269.25 8.77 269.25 7.75 269.25 C7.75 270.24 7.75 271.23 7.75 272.25 C8.74 272.58 9.73 272.91 10.75 273.25 C10.75 274.9 10.75 276.55 10.75 278.25 C9.1 278.58 7.45 278.91 5.75 279.25 C5.42 278.26 5.09 277.27 4.75 276.25 C3.76 276.91 2.77 277.57 1.75 278.25 C4.01056472 281.0322335 5.1555726 282.15092877 8.75 282.75 C11.80984485 282.45090771 11.80984485 282.45090771 14.1875 280.625 C16.05542497 278.28797561 16.05542497 278.28797561 15.625 275.125 C14.96691176 272.15318627 14.96691176 272.15318627 12.75 270.25 C13.41 269.26 14.07 268.27 14.75 267.25 C14.81754834 265.18400917 14.81754834 265.18400917 13.75 263.25 C8.77511036 259.76757725 7.73434308 259.79930094 2.75 263.25 Z M22 261.1875 C19.4522632 263.16471849 19.4522632 263.16471849 18.75 266.6875 C18.51274616 270.14887942 18.51274616 270.14887942 19.8125 272.6875 C22.48894952 274.84592703 24.40900136 274.54697766 27.75 274.25 C27.75 275.57 27.75 276.89 27.75 278.25 C26.1 278.58 24.45 278.91 22.75 279.25 C22.75 278.59 22.75 277.93 22.75 277.25 C21.76 277.25 20.77 277.25 19.75 277.25 C20.24756092 280.00641416 20.24756092 280.00641416 21.75 282.25 C24.62364791 282.66746608 24.62364791 282.66746608 27.75 282.25 C30.05275556 280.3829009 31.42823871 278.89352259 32.75 276.25 C33.18546696 271.98744836 33.17778484 268.30820461 31.5625 264.3125 C28.57370238 260.91145443 26.39917861 259.68778002 22 261.1875 Z M41.75 301.25 C45.75 302.25 45.75 302.25 45.75 302.25 Z M-36.25 303.25 C-32.25 304.25 -32.25 304.25 -32.25 304.25 Z M34.75 303.25 C38.75 304.25 38.75 304.25 38.75 304.25 Z M-32.25 304.25 C-32.25 304.58 -32.25 304.91 -32.25 305.25 C-30.6 305.25 -28.95 305.25 -27.25 305.25 C-27.25 304.92 -27.25 304.59 -27.25 304.25 C-28.9 304.25 -30.55 304.25 -32.25 304.25 Z M29.75 304.25 C29.75 304.58 29.75 304.91 29.75 305.25 C31.4 305.25 33.05 305.25 34.75 305.25 C34.75 304.92 34.75 304.59 34.75 304.25 C33.1 304.25 31.45 304.25 29.75 304.25 Z M-27.25 305.25 C-27.25 305.58 -27.25 305.91 -27.25 306.25 C-17.58787031 308.07911302 -8.25058228 308.50106796 1.5625 308.375 C2.94856112 308.36493373 4.33462946 308.35581442 5.72070312 308.34765625 C9.06399273 308.32435806 12.40689731 308.29164862 15.75 308.25 C15.75 307.92 15.75 307.59 15.75 307.25 C14.94481934 307.22494385 14.13963867 307.1998877 13.31005859 307.17407227 C10.24959897 307.07748842 7.18923338 306.9783739 4.12890625 306.87768555 C2.18235185 306.81436561 0.2357078 306.75382035 -1.7109375 306.69335938 C-10.24619519 306.41030236 -18.73688358 305.92165439 -27.25 305.25 Z M23.75 305.25 C23.75 305.58 23.75 305.91 23.75 306.25 C25.73 306.25 27.71 306.25 29.75 306.25 C29.75 305.92 29.75 305.59 29.75 305.25 C27.77 305.25 25.79 305.25 23.75 305.25 Z M15.75 306.25 C15.75 306.58 15.75 306.91 15.75 307.25 C18.39 307.25 21.03 307.25 23.75 307.25 C23.75 306.92 23.75 306.59 23.75 306.25 C21.11 306.25 18.47 306.25 15.75 306.25 Z " fill="#065F9E" transform="translate(199.25,41.75)"/>
<path d="M0 0 C1.2065625 1.05767578 1.2065625 1.05767578 2.4375 2.13671875 C3.675 3.20986328 3.675 3.20986328 4.9375 4.3046875 C42.0899345 37.10332108 67.47219334 83.23472825 71.4375 133.13671875 C71.73938083 138.98434253 71.76782425 144.83256775 71.75317383 150.68676758 C71.75002436 153.30397699 71.77353887 155.92003931 71.79882812 158.53710938 C71.99629015 211.03894075 48.63900954 259.32178041 12.375 296.44921875 C-26.86007206 334.68626036 -78.14863052 352.02110418 -132.16186523 351.60961914 C-145.56684281 351.42750852 -158.52372331 350.43278504 -171.5625 347.13671875 C-172.84592285 346.81525879 -172.84592285 346.81525879 -174.15527344 346.48730469 C-208.83573228 337.4931653 -239.28675133 320.2494032 -265.11816406 295.51806641 C-266.40051618 294.29163836 -267.69547661 293.07842388 -268.9921875 291.8671875 C-304.56658849 257.74867836 -323.57293275 206.87070077 -324.69140625 158.25 C-325.42404835 110.11586341 -310.26846619 62.84547059 -278.5625 26.13671875 C-277.8921875 25.35683594 -277.221875 24.57695313 -276.53125 23.7734375 C-274.25166563 21.184127 -271.9219649 18.65348131 -269.5625 16.13671875 C-269.10278809 15.64300781 -268.64307617 15.14929687 -268.16943359 14.640625 C-206.20460367 -51.37836351 -104.27622903 -61.56618235 0 0 Z M-217.5625 -18.86328125 C-218.75586222 -18.22014996 -219.94987562 -17.57822551 -221.14453125 -16.9375 C-244.10347674 -4.43304622 -264.6895976 13.38635255 -280.5625 34.13671875 C-281.33980469 35.14734375 -282.11710937 36.15796875 -282.91796875 37.19921875 C-313.79707554 78.34661826 -326.50373001 130.56647479 -319.36279297 181.36254883 C-313.52982574 219.76729555 -297.39131244 254.17187705 -271.5625 283.13671875 C-271.10343262 283.6575 -270.64436523 284.17828125 -270.17138672 284.71484375 C-254.48884739 302.4682473 -236.38838656 315.97685549 -215.5625 327.13671875 C-214.63848389 327.63679443 -214.63848389 327.63679443 -213.69580078 328.14697266 C-194.95015464 338.10675915 -173.51371648 344.18727565 -152.5625 347.13671875 C-151.56766602 347.28705566 -151.56766602 347.28705566 -150.55273438 347.44042969 C-142.85074623 348.4661447 -135.06872431 348.38048571 -127.3125 348.38671875 C-126.5571698 348.38739349 -125.8018396 348.38806824 -125.02362061 348.38876343 C-112.65359953 348.37125698 -100.70084529 347.69255357 -88.5625 345.13671875 C-87.73685547 344.9651123 -86.91121094 344.79350586 -86.06054688 344.61669922 C-51.06458069 337.1031754 -19.49308468 320.82904517 6.4375 296.13671875 C7.02402344 295.58274414 7.61054688 295.02876953 8.21484375 294.45800781 C22.14489488 281.22165641 33.94524867 266.88081427 43.4375 250.13671875 C43.78731934 249.54052734 44.13713867 248.94433594 44.49755859 248.33007812 C61.24986854 219.65402179 68.92531122 186.48085239 68.75 153.44921875 C68.74784485 152.71070679 68.7456897 151.97219482 68.74346924 151.21130371 C68.49819976 98.55350622 46.3660305 50.79443612 9.875 13.32421875 C4.99790322 8.58671687 -0.19819614 4.30895509 -5.5625 0.13671875 C-6.11147949 -0.29398926 -6.66045898 -0.72469727 -7.22607422 -1.16845703 C-66.11771031 -47.06126527 -151.90552099 -55.69883162 -217.5625 -18.86328125 Z " fill="#06609F" transform="translate(326.5625,47.86328125)"/>
<path d="M0 0 C0.66 0.33 1.32 0.66 2 1 C1.01 2.98 0.02 4.96 -1 7 C-0.01 7.33 0.98 7.66 2 8 C1.01 9.485 1.01 9.485 0 11 C-0.66 11 -1.32 11 -2 11 C-2.33 12.65 -2.66 14.3 -3 16 C2.00955531 19.33970354 8.53001974 18.67086285 14.34375 17.546875 C15.91582688 17.09586934 17.46297603 16.55891781 19 16 C19 14.02 19 12.04 19 10 C19.99 10 20.98 10 22 10 C23.134375 9.835 24.26875 9.67 25.4375 9.5 C30.84970922 8.74039169 35.64238306 9.28565108 41 10 C41.226875 9.236875 41.45375 8.47375 41.6875 7.6875 C43.29907972 4.38759866 44.68735742 3.4985764 48 2 C49.32 2 50.64 2 52 2 C52.66 2.99 53.32 3.98 54 5 C55.3921875 4.7525 55.3921875 4.7525 56.8125 4.5 C60.41909959 3.93425889 62.52361729 3.84120576 66 5 C66 4.01 66 3.02 66 2 C66.66 2 67.32 2 68 2 C68.25 4.3125 68.25 4.3125 68 7 C66.70264493 8.04625409 65.36733028 9.04701223 64 10 C62.93245166 11.93400917 62.93245166 11.93400917 63 14 C65.07438272 16.60594329 66.65540504 17.47161403 69.9375 17.875 C77.31379557 18.47961439 85.28816117 16.82996347 91 12 C90.01 10.515 90.01 10.515 89 9 C89 8.01 89 7.02 89 6 C89.94875 6.04125 90.8975 6.0825 91.875 6.125 C95.10244856 6.34973818 95.10244856 6.34973818 97 4 C97.99 4 98.98 4 100 4 C100.5878125 5.423125 100.5878125 5.423125 101.1875 6.875 C103.28955404 10.49923111 104.10613734 10.83556489 108 12 C110.70265734 12.27204104 110.70265734 12.27204104 113.51953125 12.1953125 C114.54111328 12.18886719 115.56269531 12.18242187 116.61523438 12.17578125 C117.67033203 12.15902344 118.72542969 12.14226562 119.8125 12.125 C121.42415039 12.11146484 121.42415039 12.11146484 123.06835938 12.09765625 C125.71246854 12.07415306 128.35611872 12.04129575 131 12 C130.49339844 11.22011719 129.98679688 10.44023437 129.46484375 9.63671875 C128 7 128 7 128.5625 4.8125 C130.30960789 2.60962483 131.31574146 1.87057034 134 1 C140.33333333 0.55555556 140.33333333 0.55555556 144 3 C143.21753906 3.12117187 142.43507812 3.24234375 141.62890625 3.3671875 C140.61699219 3.53476563 139.60507813 3.70234375 138.5625 3.875 C137.55316406 4.03742188 136.54382813 4.19984375 135.50390625 4.3671875 C134.67761719 4.57601563 133.85132813 4.78484375 133 5 C132.67 5.66 132.34 6.32 132 7 C135.05416813 8.01805604 137.17936961 8.13375515 140.375 8.125 C141.31085938 8.12757813 142.24671875 8.13015625 143.2109375 8.1328125 C145.90729747 8.00441441 148.37271509 7.60188709 151 7 C150.67 7.99 150.34 8.98 150 10 C147.93359375 10.73046875 147.93359375 10.73046875 145.4375 11.1875 C144.61121094 11.34605469 143.78492188 11.50460937 142.93359375 11.66796875 C142.29550781 11.77753906 141.65742188 11.88710938 141 12 C141 13.32 141 14.64 141 16 C146.00119878 15.3120044 148.85918335 13.15617751 152.81640625 10.1796875 C155 9 155 9 157.19921875 9.2265625 C159 10 159 10 160.25 11.5 C163.11402515 13.9548787 166.30324285 13.69698712 170 14 C170 13.34 170 12.68 170 12 C168.02 12 166.04 12 164 12 C164 11.01 164 10.02 164 9 C166.8194068 7.5902966 169.23267226 7.83015353 172.375 7.8125 C173.51710938 7.79832031 174.65921875 7.78414063 175.8359375 7.76953125 C178.83936816 7.98829966 180.47925934 8.42919363 183 10 C181.68 11.32 180.36 12.64 179 14 C183.02816894 13.71896496 184.59540601 13.4253424 187.4375 10.4375 C190 8 190 8 193.8125 7.6875 C194.864375 7.790625 195.91625 7.89375 197 8 C197.38133299 9.9914056 197.71325582 11.99279077 198 14 C197.67 14.33 197.34 14.66 197 15 C195.60355729 14.99412024 194.20719526 14.94508519 192.8125 14.875 C188.41177122 14.79840504 185.92017568 15.99635465 182 18 C178.625 17.6875 178.625 17.6875 176 17 C175.67 17.66 175.34 18.32 175 19 C176.98 19.99 176.98 19.99 179 21 C178 22 178 22 174.4375 22.0625 C173.303125 22.041875 172.16875 22.02125 171 22 C171 20.35 171 18.7 171 17 C170.13375 17.20625 169.2675 17.4125 168.375 17.625 C164.60131961 18.04429782 162.44818459 17.52361645 159 16 C158.67 15.34 158.34 14.68 158 14 C155.71163778 13.58013054 155.71163778 13.58013054 153 14 C152.21625 14.825 151.4325 15.65 150.625 16.5 C148 19 148 19 144.3125 19.4375 C141 19 141 19 139 17 C139 15.68 139 14.36 139 13 C138.13761719 13.2165625 137.27523437 13.433125 136.38671875 13.65625 C128.83765178 15.37810688 121.62834366 16.32089118 113.875 16.375 C113.07022217 16.38853516 112.26544434 16.40207031 111.4362793 16.41601562 C106.82644768 16.38107428 103.71886263 16.01664965 100 13 C98.6875 10.3125 98.6875 10.3125 98 8 C95.95163118 8.56362302 95.95163118 8.56362302 94 10 C93.95875 10.928125 93.9175 11.85625 93.875 12.8125 C93 16 93 16 90.8984375 17.46875 C82.99862646 21.47691371 75.84311436 22.76390007 67 22 C62.02857143 20.02857143 62.02857143 20.02857143 60 18 C59.76271186 11.47457627 59.76271186 11.47457627 61 9 C60.39671875 9.03480469 59.7934375 9.06960938 59.171875 9.10546875 C52.5626072 9.32933105 52.5626072 9.32933105 49.4375 7.5 C48.963125 7.005 48.48875 6.51 48 6 C47.34 6.33 46.68 6.66 46 7 C46 7.66 46 8.32 46 9 C46.78375 8.95875 47.5675 8.9175 48.375 8.875 C51 9 51 9 53 11 C52.625 13.125 52.625 13.125 52 15 C47.56733524 16.26647564 47.56733524 16.26647564 44.9375 15.03125 C40.68532991 13.53846688 36.65631806 13.78835625 32.1875 13.875 C30.86202148 13.88853516 30.86202148 13.88853516 29.50976562 13.90234375 C27.33972641 13.92580363 25.16982753 13.96167135 23 14 C22.61908203 15.18142578 22.61908203 15.18142578 22.23046875 16.38671875 C21 19 21 19 19.36328125 20.14453125 C12.21549095 22.47266866 4.43969556 23.09993171 -3 22 C-5.44921875 19.97265625 -5.44921875 19.97265625 -7 18 C-6 15 -5 12 -4 9 C-4.061875 8.195625 -4.12375 7.39125 -4.1875 6.5625 C-4 4 -4 4 -2 1.6875 C-1.34 1.130625 -0.68 0.57375 0 0 Z " fill="#0B5F9E" transform="translate(86,252)"/>
<path d="M0 0 C2 2 2 2 2.125 5.125 C2.08375 6.07375 2.0425 7.0225 2 8 C1.01 8.33 0.02 8.66 -1 9 C-0.01 10.485 -0.01 10.485 1 12 C1.26554687 11.43410156 1.53109375 10.86820313 1.8046875 10.28515625 C2.15789062 9.55167969 2.51109375 8.81820312 2.875 8.0625 C3.22304688 7.33160156 3.57109375 6.60070313 3.9296875 5.84765625 C5 4 5 4 7 3 C7.66 3.33 8.32 3.66 9 4 C8.67 5.98 8.34 7.96 8 10 C10.475 10.495 10.475 10.495 13 11 C13 12.98 13 14.96 13 17 C13.33 16.67 13.66 16.34 14 16 C16.93239214 14.45234859 18.44944505 13.8998991 21.75 14.5 C24 16 24 16 24.8125 19.125 C24.874375 20.07375 24.93625 21.0225 25 22 C25.66 21.34 26.32 20.68 27 20 C28.32 20 29.64 20 31 20 C31 20.66 31 21.32 31 22 C31.639375 22.103125 32.27875 22.20625 32.9375 22.3125 C33.618125 22.539375 34.29875 22.76625 35 23 C35.495 24.485 35.495 24.485 36 26 C37.65 26.33 39.3 26.66 41 27 C41.495 29.475 41.495 29.475 42 32 C42.928125 31.938125 43.85625 31.87625 44.8125 31.8125 C48 32 48 32 49.875 33.1875 C51.34781139 35.56036279 51.22223194 37.25913944 51 40 C50.01 40 49.02 40 48 40 C47.855625 40.804375 47.71125 41.60875 47.5625 42.4375 C47 45 47 45 46 46 C42.625 45.875 42.625 45.875 39 45 C37.3125 42.4375 37.3125 42.4375 36 40 C34.68 40 33.36 40 32 40 C32.56545837 36.04179141 33.80902348 33.3340947 36 30 C33.12579877 32.71604715 33.12579877 32.71604715 31 36 C29.68 36 28.36 36 27 36 C27.48578543 32.87709365 27.9986012 30.00419641 29 27 C27.35 28.98 25.7 30.96 24 33 C23.01 32.67 22.02 32.34 21 32 C21 31.34 21 30.68 21 30 C19.68 30 18.36 30 17 30 C17 29.34 17 28.68 17 28 C16.05125 27.896875 15.1025 27.79375 14.125 27.6875 C11 27 11 27 9 24 C7.68 24 6.36 24 5 24 C5.55105909 20.0507432 6.38935371 16.65079826 8 13 C5.27573689 15.35277269 4.1858237 17.62496331 3 21 C1.68 21 0.36 21 -1 21 C-1.33 20.01 -1.66 19.02 -2 18 C-2.92232422 18.05220703 -2.92232422 18.05220703 -3.86328125 18.10546875 C-4.67152344 18.13253906 -5.47976563 18.15960938 -6.3125 18.1875 C-7.51326172 18.23970703 -7.51326172 18.23970703 -8.73828125 18.29296875 C-11 18 -11 18 -12.78125 16.65625 C-14.44546615 14.39462293 -14.22189312 12.73668179 -14 10 C-12.68 9.67 -11.36 9.34 -10 9 C-10.33 6.69 -10.66 4.38 -11 2 C-7.3851134 -1.6148866 -4.80208868 -1.15605838 0 0 Z M-6 3 C-4.6910428 6.12197478 -4.6910428 6.12197478 -2 8 C-2.26676204 6.01508358 -2.26676204 6.01508358 -3 4 C-3.99 3.67 -4.98 3.34 -6 3 Z M-10 9 C-9.67 10.65 -9.34 12.3 -9 14 C-7.68 14 -6.36 14 -5 14 C-5.79117904 12.00016466 -5.79117904 12.00016466 -7 10 C-7.99 9.67 -8.98 9.34 -10 9 Z M18 18 C17.67 18.66 17.34 19.32 17 20 C17.99 19.67 18.98 19.34 20 19 C19.34 18.67 18.68 18.34 18 18 Z M10 21 C11 23 11 23 11 23 Z M15 23 C15.66 23.66 16.32 24.32 17 25 C17.33 24.34 17.66 23.68 18 23 C17.01 23 16.02 23 15 23 Z M22 25 C23 27 23 27 23 27 Z M21 27 C22 29 22 29 22 29 Z M40 33 C39.34 34.32 38.68 35.64 38 37 C38.99 37 39.98 37 41 37 C40.67 35.68 40.34 34.36 40 33 Z M46 36 C47 38 47 38 47 38 Z M41 38 C41.33 39.32 41.66 40.64 42 42 C42.33 41.34 42.66 40.68 43 40 C42.34 39.34 41.68 38.68 41 38 Z " fill="#0B5F9F" transform="translate(270,26)"/>
<path d="M0 0 C2.86592355 0.3364345 3.82078643 0.78543696 5.703125 3.0390625 C11.11031002 12.07834655 11.11031002 12.07834655 10 18 C6.5647952 20.29013653 5.014669 20.17842973 1 20 C0.67 18.35 0.34 16.7 0 15 C-0.66 15.33 -1.32 15.66 -2 16 C-2.65213292 18.02463255 -2.65213292 18.02463255 -3 20 C-6.7952131 18.50902342 -8.61042731 16.24299151 -11 13 C-10.38722388 15.96175123 -9.74627478 17.38058783 -8 20 C-8 21.32 -8 22.64 -8 24 C-9.32 24 -10.64 24 -12 24 C-12.226875 24.5775 -12.45375 25.155 -12.6875 25.75 C-14.39564155 28.67824265 -16.13256637 30.19951842 -19 32 C-22.46731362 31.86245367 -23.84057106 31.13718885 -26.4921875 28.85546875 C-27.27851562 27.97503906 -28.06484375 27.09460938 -28.875 26.1875 C-29.67679687 25.31480469 -30.47859375 24.44210938 -31.3046875 23.54296875 C-33 21 -33 21 -32.96875 18.87890625 C-31.81138892 16.63418576 -30.56153939 15.36786835 -28.625 13.75 C-28.01914063 13.22921875 -27.41328125 12.7084375 -26.7890625 12.171875 C-25 11 -25 11 -22 11 C-22.25 13.375 -22.25 13.375 -23 16 C-25.0625 17.3125 -25.0625 17.3125 -27 18 C-26.34 18.66 -25.68 19.32 -25 20 C-24.401875 19.505 -23.80375 19.01 -23.1875 18.5 C-21 17 -21 17 -18 17 C-18.49831724 20.68754757 -19.10067643 22.60490662 -22 25 C-18.30581799 25 -16.22163822 23.71820705 -13 22 C-14.98 19.36 -16.96 16.72 -19 14 C-14.72451559 9.2358888 -14.72451559 9.2358888 -11.3125 8.125 C-9 8 -9 8 -7 9 C-6.34 7.02 -5.68 5.04 -5 3 C-3.35 2.67 -1.7 2.34 0 2 C0 1.34 0 0.68 0 0 Z M-1 6 C-1.33 6.66 -1.66 7.32 -2 8 C-0.68 9.32 0.64 10.64 2 12 C2.33 10.35 2.66 8.7 3 7 C1.68 6.67 0.36 6.34 -1 6 Z M5 14 C4.67 14.66 4.34 15.32 4 16 C4.66 16 5.32 16 6 16 C5.67 15.34 5.34 14.68 5 14 Z " fill="#0B5F9F" transform="translate(108,42)"/>
<path d="M0 0 C5.5952381 0.5952381 5.5952381 0.5952381 8 3 C7.57816817 9.60109816 2.67117521 14.78908281 -1 20 C-1.58007812 20.84433594 -2.16015625 21.68867188 -2.7578125 22.55859375 C-3.52738281 23.64333984 -3.52738281 23.64333984 -4.3125 24.75 C-4.76238281 25.38421875 -5.21226562 26.0184375 -5.67578125 26.671875 C-6.33126953 27.32929688 -6.33126953 27.32929688 -7 28 C-7.99 28 -8.98 28 -10 28 C-10.103125 28.598125 -10.20625 29.19625 -10.3125 29.8125 C-11.09824033 32.31258286 -11.96918853 33.37535082 -14 35 C-14.66 35 -15.32 35 -16 35 C-16.103125 35.598125 -16.20625 36.19625 -16.3125 36.8125 C-17.12255514 39.38994819 -17.80289005 40.43063575 -20 42 C-22.6875 42.1875 -22.6875 42.1875 -25 42 C-24.979375 43.299375 -24.95875 44.59875 -24.9375 45.9375 C-24.91600546 47.29165633 -24.92851801 48.64756083 -25 50 C-26 51 -26 51 -28.3125 51.25 C-31.46641828 50.95661225 -32.73996287 50.17633205 -35 48 C-35 47.34 -35 46.68 -35 46 C-33.02 46.33 -31.04 46.66 -29 47 C-29.33 44.03 -29.66 41.06 -30 38 C-28.88625 37.9175 -27.7725 37.835 -26.625 37.75 C-23.00937227 37.39585944 -23.00937227 37.39585944 -21.5 35.1875 C-20.93908774 32.73350886 -21.16072909 31.34995854 -22 29 C-20.02 29.33 -18.04 29.66 -16 30 C-15.34 29.01 -14.68 28.02 -14 27 C-14.63808594 26.68546875 -15.27617187 26.3709375 -15.93359375 26.046875 C-16.75988281 25.61890625 -17.58617187 25.1909375 -18.4375 24.75 C-19.67306641 24.12351562 -19.67306641 24.12351562 -20.93359375 23.484375 C-23 22 -23 22 -23.78515625 19.828125 C-23.85605469 19.22484375 -23.92695313 18.6215625 -24 18 C-19.0276578 19.49170266 -14.58154261 21.60457417 -10 24 C-10 23.34 -10 22.68 -10 22 C-10.639375 21.87625 -11.27875 21.7525 -11.9375 21.625 C-12.9584375 21.315625 -12.9584375 21.315625 -14 21 C-15.17635297 18.64729407 -15.13359359 17.179248 -15.125 14.5625 C-15.12757813 13.78003906 -15.13015625 12.99757813 -15.1328125 12.19140625 C-15 10 -15 10 -14 7 C-13.34 7 -12.68 7 -12 7 C-10.75696384 10.59099336 -11.31883985 13.31668957 -12 17 C-11.67201416 16.52054932 -11.34402832 16.04109863 -11.00610352 15.54711914 C-9.52600294 13.38482365 -8.04427358 11.22364932 -6.5625 9.0625 C-6.04623047 8.30775391 -5.52996094 7.55300781 -4.99804688 6.77539062 C-4.50498047 6.05673828 -4.01191406 5.33808594 -3.50390625 4.59765625 C-3.04830322 3.93258057 -2.5927002 3.26750488 -2.12329102 2.58227539 C-1 1 -1 1 0 0 Z M2 4 C2 7 2 7 2 7 Z M0 7 C0 10 0 10 0 10 Z M-2 10 C-1 12 -1 12 -1 12 Z " fill="#0B5F9F" transform="translate(352,290)"/>
<path d="M0 0 C0.90105469 0.01804687 1.80210938 0.03609375 2.73046875 0.0546875 C3.41753906 0.07789063 4.10460938 0.10109375 4.8125 0.125 C4.8125 0.785 4.8125 1.445 4.8125 2.125 C2.8325 2.455 0.8525 2.785 -1.1875 3.125 C-0.99921228 5.56980079 -0.99921228 5.56980079 -0.1875 8.125 C1.78008273 9.48520151 1.78008273 9.48520151 3.8125 10.125 C4.8025 9.465 5.7925 8.805 6.8125 8.125 C9.5 8 9.5 8 11.8125 8.125 C11.4825 9.775 11.1525 11.425 10.8125 13.125 C14.2775 14.61 14.2775 14.61 17.8125 16.125 C17.1525 16.785 16.4925 17.445 15.8125 18.125 C17.1325 18.455 18.4525 18.785 19.8125 19.125 C19.4825 19.785 19.1525 20.445 18.8125 21.125 C18.1525 21.125 17.4925 21.125 16.8125 21.125 C17.1425 22.445 17.4725 23.765 17.8125 25.125 C20.7825 25.455 23.7525 25.785 26.8125 26.125 C27.77154856 29.96119425 27.73142116 31.44931536 26.8125 35.125 C29.14567216 35.90272405 31.42685923 36.54915568 33.8125 37.125 C32.8225 38.445 31.8325 39.765 30.8125 41.125 C33.1225 41.125 35.4325 41.125 37.8125 41.125 C37.8125 41.785 37.8125 42.445 37.8125 43.125 C38.8025 43.125 39.7925 43.125 40.8125 43.125 C40.1875 45 40.1875 45 38.8125 47.125 C35.6875 48.375 35.6875 48.375 32.8125 49.125 C31.47320495 47.83951591 30.14121357 46.54641845 28.8125 45.25 C28.07 44.53070313 27.3275 43.81140625 26.5625 43.0703125 C24.8125 41.125 24.8125 41.125 24.8125 39.125 C24.1525 39.125 23.4925 39.125 22.8125 39.125 C22.1525 38.135 21.4925 37.145 20.8125 36.125 C19.3275 35.63 19.3275 35.63 17.8125 35.125 C17.4825 32.485 17.1525 29.845 16.8125 27.125 C16.23113281 27.08375 15.64976563 27.0425 15.05078125 27 C10.84481524 25.35578292 9.26184425 20.58282252 7.10546875 16.8125 C4.9935348 13.78014551 4.9935348 13.78014551 1.23046875 13.38671875 C0.10253906 13.30035156 -1.02539062 13.21398437 -2.1875 13.125 C-5.61763479 10.51511484 -6.96849756 9.01785611 -8 4.8125 C-8.061875 3.925625 -8.12375 3.03875 -8.1875 2.125 C-4.87379 -0.08414 -3.8428979 -0.09981553 0 0 Z M21.8125 28.125 C22.1425 29.115 22.4725 30.105 22.8125 31.125 C22.8125 30.135 22.8125 29.145 22.8125 28.125 C22.4825 28.125 22.1525 28.125 21.8125 28.125 Z " fill="#0B5F9F" transform="translate(48.1875,292.875)"/>
<path d="M0 0 C1.57554134 4.13579601 2.50427005 7.56242357 2 12 C-1 14 -1 14 -4.625 13.6875 C-8 13 -8 13 -9 12 C-9.33 12.825 -9.66 13.65 -10 14.5 C-12 17 -12 17 -13.9453125 17.33203125 C-15.96649294 17.31392031 -17.98527931 17.16247747 -20 17 C-20.33 17 -20.66 17 -21 17 C-21 17.99 -21 18.98 -21 20 C-23.3125 19.875 -23.3125 19.875 -26 19 C-27.8125 15.9375 -27.8125 15.9375 -29 13 C-29 16.41099168 -28.50854594 19.63088314 -28 23 C-29.75 22.9375 -29.75 22.9375 -32 22 C-34.83257126 17.90850818 -36.61838818 15.10170244 -36 10 C-34.73392393 9.46770674 -33.46189588 8.94955456 -32.1875 8.4375 C-31.47980469 8.14746094 -30.77210937 7.85742188 -30.04296875 7.55859375 C-28 7 -28 7 -25 8 C-24.67 8.66 -24.34 9.32 -24 10 C-23.71125 9.21625 -23.4225 8.4325 -23.125 7.625 C-22 5 -22 5 -20 3 C-17 2.75 -17 2.75 -14 3 C-13.34 3.66 -12.68 4.32 -12 5 C-11.3503125 3.7934375 -11.3503125 3.7934375 -10.6875 2.5625 C-7.72872728 -1.93045117 -4.79188779 -0.95837756 0 0 Z M-6 3 C-6 3.66 -6 4.32 -6 5 C-5.34 5 -4.68 5 -4 5 C-4 4.34 -4 3.68 -4 3 C-4.66 3 -5.32 3 -6 3 Z M-18 7 C-18.33 7.66 -18.66 8.32 -19 9 C-18.01 8.67 -17.02 8.34 -16 8 C-16.66 7.67 -17.32 7.34 -18 7 Z M-11 8 C-10 10 -10 10 -10 10 Z M-5 8 C-4.67 8.66 -4.34 9.32 -4 10 C-3.34 10 -2.68 10 -2 10 C-2 9.34 -2 8.68 -2 8 C-2.99 8 -3.98 8 -5 8 Z M-15 11 C-15.66 11.66 -16.32 12.32 -17 13 C-16.01 13 -15.02 13 -14 13 C-13.67 12.34 -13.34 11.68 -13 11 C-13.66 11 -14.32 11 -15 11 Z " fill="#0B5F9F" transform="translate(155,27)"/>
<path d="M0 0 C1.32 0.33 2.64 0.66 4 1 C3.67 2.32 3.34 3.64 3 5 C1.68 5.33 0.36 5.66 -1 6 C0.98 6.66 2.96 7.32 5 8 C5 9.65 5 11.3 5 13 C4.01 13.33 3.02 13.66 2 14 C1.67 14.99 1.34 15.98 1 17 C1.66 17 2.32 17 3 17 C3 18.32 3 19.64 3 21 C0.5 23.25 0.5 23.25 -2 25 C-0.02 25.66 1.96 26.32 4 27 C4 28.32 4 29.64 4 31 C-11.96666667 30.03333333 -11.96666667 30.03333333 -16 26 C-16.04080783 24.00041636 -16.04254356 21.99954746 -16 20 C-14.68 20.33 -13.36 20.66 -12 21 C-12 21.66 -12 22.32 -12 23 C-7.93184627 21.15083921 -4.9905167 19.33557632 -2 16 C-3.98 16.33 -5.96 16.66 -8 17 C-8 17.99 -8 18.98 -8 20 C-9.32 19.67 -10.64 19.34 -12 19 C-12.6875 16.6875 -12.6875 16.6875 -13 14 C-10.89574675 10.65795073 -7.59615979 10.1726608 -4 9 C-3.67 8.34 -3.34 7.68 -3 7 C-3.680625 7.33 -4.36125 7.66 -5.0625 8 C-8.50840238 9.17307315 -11.38397422 9.14180493 -15 9 C-14.73046875 7.109375 -14.73046875 7.109375 -14 5 C-9.76812563 2.29321639 -4.9410623 1.62942033 0 2 C0 1.34 0 0.68 0 0 Z " fill="#0B5F9F" transform="translate(376,142)"/>
<path d="M0 0 C5.79361245 2.26251682 9.08770326 7.73907687 12 13 C12.37194407 15.89620449 11.99382858 17.20485713 11 20 C9.68 20 8.36 20 7 20 C6.505 17.525 6.505 17.525 6 15 C2.7 14.01 -0.6 13.02 -4 12 C-4 12.99 -4 13.98 -4 15 C-1.03 15.33 1.94 15.66 5 16 C5.042721 17.66611905 5.04063832 19.33382885 5 21 C4 22 4 22 1.25 22.1875 C-1.96743924 22.00187851 -4.10756683 21.36114502 -7 20 C-4.36 21.65 -1.72 23.3 1 25 C0.67 26.32 0.34 27.64 0 29 C-4.3282367 28.39774072 -7.52979838 26.8444251 -11.3125 24.6875 C-12.38113281 24.09324219 -13.44976562 23.49898437 -14.55078125 22.88671875 C-15.35902344 22.26410156 -16.16726562 21.64148438 -17 21 C-17 19.68 -17 18.36 -17 17 C-15.02 17.33 -13.04 17.66 -11 18 C-10.67 17.34 -10.34 16.68 -10 16 C-10.99 15.67 -11.98 15.34 -13 15 C-13 13.68 -13 12.36 -13 11 C-11.02 11 -9.04 11 -7 11 C-6.67 10.01 -6.34 9.02 -6 8 C-3.36 8 -0.72 8 2 8 C1.484375 7.4225 0.96875 6.845 0.4375 6.25 C-1 4 -1 4 -0.6875 1.75 C-0.460625 1.1725 -0.23375 0.595 0 0 Z " fill="#0B5F9F" transform="translate(52,92)"/>
<path d="M0 0 C1.33998047 0.06960937 1.33998047 0.06960937 2.70703125 0.140625 C3.60808594 0.17671875 4.50914062 0.2128125 5.4375 0.25 C6.12457031 0.29640625 6.81164062 0.3428125 7.51953125 0.390625 C7.57333703 3.18254705 7.61310794 5.9734391 7.64453125 8.765625 C7.66966797 9.95671875 7.66966797 9.95671875 7.6953125 11.171875 C7.71288598 13.24554515 7.62288293 15.31945741 7.51953125 17.390625 C5.51953125 19.390625 5.51953125 19.390625 3.57421875 19.5859375 C1.55598958 19.52083333 -0.46223958 19.45572917 -2.48046875 19.390625 C-2.62484375 18.606875 -2.76921875 17.823125 -2.91796875 17.015625 C-3.358458 14.42641482 -3.358458 14.42641482 -4.48046875 12.390625 C-4.81046875 13.380625 -5.14046875 14.370625 -5.48046875 15.390625 C-6.80046875 15.390625 -8.12046875 15.390625 -9.48046875 15.390625 C-9.81046875 12.090625 -10.14046875 8.790625 -10.48046875 5.390625 C-11.47046875 5.885625 -11.47046875 5.885625 -12.48046875 6.390625 C-12.48046875 9.360625 -12.48046875 12.330625 -12.48046875 15.390625 C-13.80046875 15.720625 -15.12046875 16.050625 -16.48046875 16.390625 C-18.77659631 6.98060222 -18.77659631 6.98060222 -18.48046875 2.390625 C-14.7493543 1.51271572 -11.31251657 1.04999853 -7.48046875 1.390625 C-6.82046875 2.380625 -6.16046875 3.370625 -5.48046875 4.390625 C-5.09246094 3.73578125 -4.70445312 3.0809375 -4.3046875 2.40625 C-2.48046875 0.390625 -2.48046875 0.390625 0 0 Z M-0.48046875 4.390625 C-0.48046875 6.040625 -0.48046875 7.690625 -0.48046875 9.390625 C0.83953125 9.390625 2.15953125 9.390625 3.51953125 9.390625 C3.18953125 7.740625 2.85953125 6.090625 2.51953125 4.390625 C1.52953125 4.390625 0.53953125 4.390625 -0.48046875 4.390625 Z M-0.48046875 14.390625 C3.51953125 15.390625 3.51953125 15.390625 3.51953125 15.390625 Z " fill="#0B5F9F" transform="translate(190.48046875,19.609375)"/>
<path d="M0 0 C1.98 0 3.96 0 6 0 C6.2475 0.721875 6.495 1.44375 6.75 2.1875 C7.89501432 5.12299667 7.89501432 5.12299667 10.1875 7.5625 C10.785625 8.366875 11.38375 9.17125 12 10 C11.55873546 12.88014555 10.47792262 15.53585404 9.4375 18.25 C9.16808594 18.95640625 8.89867187 19.6628125 8.62109375 20.390625 C8.41613281 20.92171875 8.21117187 21.4528125 8 22 C4.65747276 22.07427838 2.1964086 22.06546953 -1 21 C-3.42622045 21.90883604 -3.42622045 21.90883604 -5.9375 23.3125 C-6.79214844 23.76238281 -7.64679688 24.21226562 -8.52734375 24.67578125 C-10.04750336 25.48989517 -11.56609933 26.30694692 -13.08203125 27.12890625 C-15.95362366 28.43311217 -18.88906604 28.64104608 -22 29 C-22.33 27.02 -22.66 25.04 -23 23 C-22.01 23.33 -21.02 23.66 -20 24 C-19.01 23.67 -18.02 23.34 -17 23 C-17.495 22.13375 -17.495 22.13375 -18 21.25 C-19 19 -19 19 -19 15 C-15.83884224 16.36983503 -15.0072908 16.9890638 -13 20 C-11.68 19.34 -10.36 18.68 -9 18 C-9 16.68 -9 15.36 -9 14 C-8.01 14.33 -7.02 14.66 -6 15 C-6 15.66 -6 16.32 -6 17 C-3.98608854 16.32768352 -3.98608854 16.32768352 -2 15 C-1.08839907 12.82791412 -1.08839907 12.82791412 -0.75 10.375 C-0.60046875 9.55773437 -0.4509375 8.74046875 -0.296875 7.8984375 C-0.19890625 7.27195312 -0.1009375 6.64546875 0 6 C0.99 6.33 1.98 6.66 3 7 C3.33 8.65 3.66 10.3 4 12 C4.66 11.67 5.32 11.34 6 11 C4.92710346 8.40716671 4.20253394 7.14296513 1.875 5.5 C1.25625 5.005 0.6375 4.51 0 4 C0 2.68 0 1.36 0 0 Z M3 17 C3 17.66 3 18.32 3 19 C3.99 18.67 4.98 18.34 6 18 C5.01 17.67 4.02 17.34 3 17 Z " fill="#0B5F9F" transform="translate(292,341)"/>
<path d="M0 0 C0 0.66 0 1.32 0 2 C-0.639375 2.2475 -1.27875 2.495 -1.9375 2.75 C-4.49019039 3.96621634 -4.49019039 3.96621634 -5 8 C-0.545 8.99 -0.545 8.99 4 10 C4.33 8.02 4.66 6.04 5 4 C6.8125 3.3125 6.8125 3.3125 9 3 C10 4 11 5 12 6 C14.16299211 5.77242269 14.16299211 5.77242269 16 5 C14.125 10.75 14.125 10.75 13 13 C14.5778125 12.2575 14.5778125 12.2575 16.1875 11.5 C19.25533935 10.18964757 21.62491077 9.5178444 25 10 C27 12 27 12 27.125 14.625 C27.08375 15.40875 27.0425 16.1925 27 17 C26.401875 16.690625 25.80375 16.38125 25.1875 16.0625 C22.91043228 14.89790296 22.91043228 14.89790296 20 14 C22.16687491 16.27521866 24.45620509 18.15794162 27 20 C24 22 24 22 21.375 21.9375 C16.81550694 20.67097415 13.03559512 18.43032506 9 16 C9.33 14.35 9.66 12.7 10 11 C6.62537285 11.54723683 4.91765 12.0549 2 14 C-2.0370687 13.80775863 -4.89987582 13.55006209 -8.5 11.75 C-10 10 -10 10 -10.5625 7.5625 C-9.76996178 3.95204811 -8.03396572 2.97560559 -5 1 C-2 0 -2 0 0 0 Z " fill="#0B5F9F" transform="translate(103,345)"/>
<path d="M0 0 C7.26 0 14.52 0 22 0 C21.67 0.66 21.34 1.32 21 2 C20.34 2 19.68 2 19 2 C19 2.66 19 3.32 19 4 C19.66 4 20.32 4 21 4 C21 4.66 21 5.32 21 6 C20.34 6 19.68 6 19 6 C19 6.66 19 7.32 19 8 C19.66 8 20.32 8 21 8 C21 8.66 21 9.32 21 10 C20.34 10 19.68 10 19 10 C19 10.66 19 11.32 19 12 C19.66 12 20.32 12 21 12 C21 12.66 21 13.32 21 14 C20.34 14 19.68 14 19 14 C19.66 15.32 20.32 16.64 21 18 C20.34 18 19.68 18 19 18 C19 18.99 19 19.98 19 21 C19.66 21.33 20.32 21.66 21 22 C20.34 22 19.68 22 19 22 C19 22.99 19 23.98 19 25 C19.66 25 20.32 25 21 25 C21 25.66 21 26.32 21 27 C20.34 27 19.68 27 19 27 C19 27.66 19 28.32 19 29 C19.66 29 20.32 29 21 29 C21 29.66 21 30.32 21 31 C20.34 31 19.68 31 19 31 C19 31.66 19 32.32 19 33 C20.485 33.495 20.485 33.495 22 34 C20.515 34.495 20.515 34.495 19 35 C19 35.66 19 36.32 19 37 C19.66 37 20.32 37 21 37 C21 37.66 21 38.32 21 39 C14.07 39 7.14 39 0 39 C0 38.34 0 37.68 0 37 C0.66 37 1.32 37 2 37 C2 36.34 2 35.68 2 35 C1.34 35 0.68 35 0 35 C0 34.34 0 33.68 0 33 C0.66 33 1.32 33 2 33 C2 32.34 2 31.68 2 31 C1.34 31 0.68 31 0 31 C0 30.34 0 29.68 0 29 C0.66 29 1.32 29 2 29 C2 28.34 2 27.68 2 27 C1.34 27 0.68 27 0 27 C0 26.34 0 25.68 0 25 C0.66 25 1.32 25 2 25 C1.34 23.68 0.68 22.36 0 21 C0.66 21 1.32 21 2 21 C2 20.01 2 19.02 2 18 C1.34 17.67 0.68 17.34 0 17 C0.99 15.515 0.99 15.515 2 14 C1.34 14 0.68 14 0 14 C0 13.34 0 12.68 0 12 C0.66 12 1.32 12 2 12 C2 11.34 2 10.68 2 10 C1.34 10 0.68 10 0 10 C0 9.34 0 8.68 0 8 C0.66 8 1.32 8 2 8 C2 7.34 2 6.68 2 6 C1.34 6 0.68 6 0 6 C0 5.34 0 4.68 0 4 C0.66 4 1.32 4 2 4 C2 3.34 2 2.68 2 2 C1.34 2 0.68 2 0 2 C0 1.34 0 0.68 0 0 Z M4 2 C4 13.55 4 25.1 4 37 C8.29 37 12.58 37 17 37 C17 25.45 17 13.9 17 2 C12.71 2 8.42 2 4 2 Z " fill="#06609F" transform="translate(190,181)"/>
<path d="M0 0 C1.32 0 2.64 0 4 0 C3.25 4.75 3.25 4.75 1 7 C3.31 7 5.62 7 8 7 C8.12375 8.1446875 8.12375 8.1446875 8.25 9.3125 C8.71719297 12.14279044 8.71719297 12.14279044 11.0625 13.3125 C13 15 13 15 13.33203125 16.890625 C13.375 19.0625 13.375 19.0625 13 23 C10.70423322 25.29576678 9.09653751 26.0638375 6 27 C3.3125 26.8125 3.3125 26.8125 1 26 C-1.32749345 22.50875983 -1.50299316 21.10777749 -1 17 C1 14.625 1 14.625 3 13 C0.03 13 -2.94 13 -6 13 C-6.33 12.01 -6.66 11.02 -7 10 C-5.70703125 7.51953125 -5.70703125 7.51953125 -3.8125 4.8125 C-3.20019531 3.91144531 -2.58789062 3.01039062 -1.95703125 2.08203125 C-1.31121094 1.39496094 -0.66539062 0.70789063 0 0 Z M8 17 C8 17.66 8 18.32 8 19 C8.66 18.67 9.32 18.34 10 18 C9.34 17.67 8.68 17.34 8 17 Z M3 19 C3 19.99 3 20.98 3 22 C3.66 22 4.32 22 5 22 C4.67 21.01 4.34 20.02 4 19 C3.67 19 3.34 19 3 19 Z " fill="#0B5F9F" transform="translate(350,97)"/>
<path d="M0 0 C0.33 0 0.66 0 1 0 C1 1.65 1 3.3 1 5 C2.0725 4.319375 3.145 3.63875 4.25 2.9375 C7.66157733 0.96528998 7.66157733 0.96528998 10.4375 1.25 C10.953125 1.4975 11.46875 1.745 12 2 C12 3.32 12 4.64 12 6 C13.32 6 14.64 6 16 6 C16.33 5.01 16.66 4.02 17 3 C19.875 2.375 19.875 2.375 23 2 C25 4 25 4 25 8 C28.9822186 7.43111163 31.60567493 6.10998585 35 4 C35.66 4 36.32 4 37 4 C38.38125018 6.76250036 38.19079306 8.94731099 38 12 C37.34 12.66 36.68 13.32 36 14 C33.6618385 13.70241581 31.32817964 13.36760731 29 13 C28.01 13.33 27.02 13.66 26 14 C20.1206282 13.30421635 14.3963432 11.36681719 9 9 C8.34 8.01 7.68 7.02 7 6 C6.443125 6.495 5.88625 6.99 5.3125 7.5 C2.61837017 9.24754367 1.14624993 9.26218749 -2 9 C-2.25 3.375 -2.25 3.375 0 0 Z " fill="#0B5F9F" transform="translate(141,367)"/>
<path d="M0 0 C1.32 0 2.64 0 4 0 C4 1.32 4 2.64 4 4 C4.99 4.33 5.98 4.66 7 5 C7.12375 5.556875 7.2475 6.11375 7.375 6.6875 C8.33020166 10.22174615 10.58535064 12.27578021 13 15 C12.67 15.66 12.34 16.32 12 17 C10.35 16.67 8.7 16.34 7 16 C7.061875 17.093125 7.12375 18.18625 7.1875 19.3125 C7 23 7 23 5.9375 24.9375 C2.8347167 26.63902633 0.46230815 26.42519574 -3 26 C-5.4375 24.4375 -5.4375 24.4375 -7 22 C-7.625 18.5 -7.625 18.5 -7 15 C-4 12.5625 -4 12.5625 -1 11 C-1.09539062 10.37351562 -1.19078125 9.74703125 -1.2890625 9.1015625 C-1.39992188 8.28429687 -1.51078125 7.46703125 -1.625 6.625 C-1.74101563 5.81289062 -1.85703125 5.00078125 -1.9765625 4.1640625 C-1.98429687 3.44992188 -1.99203125 2.73578125 -2 2 C-1.34 1.34 -0.68 0.68 0 0 Z M2 11 C2 11.66 2 12.32 2 13 C2.66 12.67 3.32 12.34 4 12 C3.34 11.67 2.68 11.34 2 11 Z M-2 16 C-2.6814823 17.89179203 -2.6814823 17.89179203 -3 20 C-2.34 20.66 -1.68 21.32 -1 22 C1.10820797 21.6814823 1.10820797 21.6814823 3 21 C2.20882096 19.00016466 2.20882096 19.00016466 1 17 C0.01 16.67 -0.98 16.34 -2 16 Z " fill="#0B5F9F" transform="translate(66,67)"/>
<path d="M0 0 C3.33825202 3.33825202 2.81171778 8.41643139 3.2109375 12.96679688 C3.41087315 14.98511276 3.69882988 16.99429069 4 19 C4.66 19.33 5.32 19.66 6 20 C6.33 18.35 6.66 16.7 7 15 C15.5665263 13.47026316 23.48372872 14.73562107 32 16 C32 17.32 32 18.64 32 20 C28.940229 20.84357963 25.8767954 21.6730202 22.8125 22.5 C21.94818359 22.73847656 21.08386719 22.97695313 20.19335938 23.22265625 C19.35224609 23.44824219 18.51113281 23.67382812 17.64453125 23.90625 C16.87471924 24.11572266 16.10490723 24.32519531 15.31176758 24.54101562 C12.82176477 25.03538729 10.53218501 25.07833519 8 25 C8 25.66 8 26.32 8 27 C9.32 27.33 10.64 27.66 12 28 C11 29 11 29 8.4375 29.0625 C7.633125 29.041875 6.82875 29.02125 6 29 C5.731875 28.21625 5.46375 27.4325 5.1875 26.625 C4.15185568 23.71885077 4.15185568 23.71885077 1 22 C-0.26581964 18.20254109 -0.69857008 14.39159765 -1.1875 10.4375 C-1.29513672 9.65697266 -1.40277344 8.87644531 -1.51367188 8.07226562 C-1.76232262 6.05697739 -1.88978303 4.02757641 -2 2 C-1.34 1.34 -0.68 0.68 0 0 Z M10 17 C9.67 18.32 9.34 19.64 9 21 C12.54667178 22.25127906 14.72253438 21.72285053 18.25 20.5625 C19.58804687 20.13130859 19.58804687 20.13130859 20.953125 19.69140625 C21.96632813 19.34916016 21.96632813 19.34916016 23 19 C23 18.67 23 18.34 23 18 C18.71 17.67 14.42 17.34 10 17 Z " fill="#0B5F9E" transform="translate(286,245)"/>
<path d="M0 0 C0.19335938 0.69867188 0.38671875 1.39734375 0.5859375 2.1171875 C0.84632813 3.02726562 1.10671875 3.93734375 1.375 4.875 C1.63023437 5.77992187 1.88546875 6.68484375 2.1484375 7.6171875 C2.8604315 10.14569726 2.8604315 10.14569726 5 12 C5.83679382 15.57539179 6.17348213 17.47955362 5 21 C3.68 21 2.36 21 1 21 C1.33 19.02 1.66 17.04 2 15 C1.34 15 0.68 15 0 15 C0.020625 16.299375 0.04125 17.59875 0.0625 18.9375 C0.08399454 20.29165633 0.07148199 21.64756083 0 23 C-1 24 -1 24 -3.375 24.3125 C-6 24 -6 24 -7.8125 22.375 C-9.28601103 19.42797793 -9.22179212 17.25295114 -9 14 C-7.68 13.34 -6.36 12.68 -5 12 C-4.67 12.33 -4.34 12.66 -4 13 C-2.5393715 10.35261084 -2 9.10551666 -2 6 C-2.54269531 6.2165625 -3.08539063 6.433125 -3.64453125 6.65625 C-4.35996094 6.9346875 -5.07539063 7.213125 -5.8125 7.5 C-6.87404297 7.91765625 -6.87404297 7.91765625 -7.95703125 8.34375 C-10 9 -10 9 -13 9 C-13 6.75 -13 6.75 -12 4 C-8.07706062 1.19020589 -4.83245843 0 0 0 Z M-5 16 C-4.67 16.99 -4.34 17.98 -4 19 C-4 18.01 -4 17.02 -4 16 C-4.33 16 -4.66 16 -5 16 Z " fill="#0B5F9F" transform="translate(367,121)"/>
<path d="M0 0 C0.33 0.99 0.66 1.98 1 3 C-0.3984375 4.90234375 -0.3984375 4.90234375 -2.375 6.9375 C-4.93260333 9.5817154 -6.42378529 11.32045749 -7 15 C-2.77467414 14.26798083 -0.78465072 12.17835581 2.21875 9.27734375 C4 8 4 8 8 8 C7.69575489 11.34084536 7.22558957 12.7606244 4.890625 15.23828125 C4.01921875 15.92277344 3.1478125 16.60726562 2.25 17.3125 C1.38890625 18.00988281 0.5278125 18.70726563 -0.359375 19.42578125 C-3.26496815 21.15796178 -4.68370517 21.4761572 -8 21 C-10.7586289 19.0076569 -11.84082637 17.36861261 -13.1875 14.25 C-12.89125786 9.11513625 -9.53929961 6.48725109 -6 3 C-5.48953125 2.42636719 -4.9790625 1.85273437 -4.453125 1.26171875 C-3 0 -3 0 0 0 Z " fill="#0B5F9F" transform="translate(334,65)"/>
<path d="M0 0 C1.5 1.125 1.5 1.125 3 3 C3.06012319 4.9990961 3.06500629 7.00105673 3 9 C0.46435932 9.89741202 -2.07577061 10.76781604 -4.625 11.625 C-5.33785156 11.88023437 -6.05070312 12.13546875 -6.78515625 12.3984375 C-11.53866936 13.96840513 -14.26687235 14.1948573 -19 12 C-19.99 14.31 -20.98 16.62 -22 19 C-23.875 18.6875 -23.875 18.6875 -26 18 C-28.1519437 14.77208445 -28.20086443 13.71599191 -28 10 C-25.525 11.98 -25.525 11.98 -23 14 C-22.5978125 12.576875 -22.5978125 12.576875 -22.1875 11.125 C-21 8 -21 8 -18 6 C-17.34 6.66 -16.68 7.32 -16 8 C-12.91652174 8.16681109 -12.91652174 8.16681109 -10 8 C-9.67 6.35 -9.34 4.7 -9 3 C-8.67 4.32 -8.34 5.64 -8 7 C-7.01 6.67 -6.02 6.34 -5 6 C-4.26676204 3.98491642 -4.26676204 3.98491642 -4 2 C-3.34 2 -2.68 2 -2 2 C-2 2.99 -2 3.98 -2 5 C-1.34 3.35 -0.68 1.7 0 0 Z " fill="#0B5F9F" transform="translate(264,364)"/>
<path d="M0 0 C0.53160457 2.41474617 1.05054766 4.83108107 1.5625 7.25 C1.71396484 7.93191406 1.86542969 8.61382812 2.02148438 9.31640625 C2.75233495 12.81769038 3.32203546 15.60298173 2 19 C0.0625 18.6875 0.0625 18.6875 -2 18 C-2.33 17.01 -2.66 16.02 -3 15 C-4.32 15 -5.64 15 -7 15 C-7.66 15.99 -8.32 16.98 -9 18 C-9.99 18 -10.98 18 -12 18 C-12.340192 13.06721593 -11.39691305 10.05196455 -9.125 5.6875 C-8.59132812 4.63949219 -8.05765625 3.59148438 -7.5078125 2.51171875 C-5.23430428 -1.27549832 -3.97618541 -1.19285562 0 0 Z M-4 7 C-4.33 7.99 -4.66 8.98 -5 10 C-4.34 10 -3.68 10 -3 10 C-3.33 9.01 -3.66 8.02 -4 7 Z " fill="#0B5F9F" transform="translate(229,17)"/>
<path d="M0 0 C1.32 0 2.64 0 4 0 C3.67 3.3 3.34 6.6 3 10 C3.99 10 4.98 10 6 10 C6.33 7.69 6.66 5.38 7 3 C8.32 3.33 9.64 3.66 11 4 C10.67 6.31 10.34 8.62 10 11 C12.31 11.66 14.62 12.32 17 13 C16.67 14.32 16.34 15.64 16 17 C3.33029613 16.22095672 3.33029613 16.22095672 -2 14 C-1.85866501 12.22880197 -1.71176792 10.45804713 -1.5625 8.6875 C-1.48128906 7.70136719 -1.40007813 6.71523437 -1.31640625 5.69921875 C-1 3 -1 3 0 0 Z " fill="#0B5F9F" transform="translate(19,158)"/>
<path d="M0 0 C1.41702513 0.14230808 2.8336096 0.28900746 4.25 0.4375 C5.43335938 0.55931641 5.43335938 0.55931641 6.640625 0.68359375 C8.82364639 0.97634993 10.8773182 1.42064419 13 2 C12.88610125 3.79240663 12.75852313 5.58394835 12.625 7.375 C12.55539063 8.37273437 12.48578125 9.37046875 12.4140625 10.3984375 C12 13 12 13 10 15 C7.5 15.25 7.5 15.25 5 15 C4.34 14.34 3.68 13.68 3 13 C1.67405895 12.63837971 0.34061543 12.30271961 -1 12 C-2 11 -2 11 -2.1875 7.6875 C-2.01223518 4.24062513 -1.61346865 2.88893794 0 0 Z M2 5 C3 9 3 9 3 9 Z M7 6 C7.33 7.32 7.66 8.64 8 10 C8.33 9.34 8.66 8.68 9 8 C8.34 7.34 7.68 6.68 7 6 Z " fill="#0B5F9F" transform="translate(27,146)"/>
<path d="M0 0 C2.0625 0.4375 2.0625 0.4375 4 1 C4.33333333 2.66666667 4.66666667 4.33333333 5 6 C5.2784375 7.1446875 5.2784375 7.1446875 5.5625 8.3125 C6.14883391 11.91426542 6.06183621 15.35166351 6 19 C4.68 18.67 3.36 18.34 2 18 C1.67 15.03 1.34 12.06 1 9 C-0.65 9.33 -2.3 9.66 -4 10 C-3.67 13.3 -3.34 16.6 -3 20 C-4.32 20 -5.64 20 -7 20 C-8.5912689 15.126739 -9.21192221 11.19209404 -9 6 C-4.545 5.505 -4.545 5.505 0 5 C-0.33 3.68 -0.66 2.36 -1 1 C-0.67 0.67 -0.34 0.34 0 0 Z " fill="#0B5F9F" transform="translate(166,18)"/>
<path d="M0 0 C0.66 0 1.32 0 2 0 C2 4.29 2 8.58 2 13 C3.32 12.67 4.64 12.34 6 12 C6.33 10.68 6.66 9.36 7 8 C9.73019786 6.93471252 10.79298812 6.92001814 13.578125 7.99609375 C14.90070313 8.70958984 14.90070313 8.70958984 16.25 9.4375 C17.14203125 9.91058594 18.0340625 10.38367188 18.953125 10.87109375 C19.62859375 11.24363281 20.3040625 11.61617188 21 12 C20.2109375 13.953125 20.2109375 13.953125 19 16 C12.44099169 17.4575574 5.69105742 17.10036586 -1 17 C-1.02691685 14.54159395 -1.04679802 12.08348118 -1.0625 9.625 C-1.07087891 8.92632812 -1.07925781 8.22765625 -1.08789062 7.5078125 C-1.11328125 2.2265625 -1.11328125 2.2265625 0 0 Z " fill="#0B5F9F" transform="translate(183,366)"/>
<path d="M0 0 C3.125 0.375 3.125 0.375 6 1 C7.23076923 7.4 7.23076923 7.4 6.0625 10.4375 C5.711875 10.953125 5.36125 11.46875 5 12 C6.65 12 8.3 12 10 12 C10 12.99 10 13.98 10 15 C8.02 15.33 6.04 15.66 4 16 C4 19.63 4 23.26 4 27 C2.68 27 1.36 27 0 27 C0.33 23.04 0.66 19.08 1 15 C-0.98 15 -2.96 15 -5 15 C-5 14.01 -5 13.02 -5 12 C-3.68 11.67 -2.36 11.34 -1 11 C-1.33 10.34 -1.66 9.68 -2 9 C-2.1875 5.5 -2.1875 5.5 -2 2 C-1.34 1.34 -0.68 0.68 0 0 Z M1 3 C0.06576355 6.01031744 -0.04449911 6.86650268 1 10 C1.99 9.67 2.98 9.34 4 9 C4 7.35 4 5.7 4 4 C3.01 3.67 2.02 3.34 1 3 Z " fill="#06609F" transform="translate(198,103)"/>
<path d="M0 0 C4.85963179 0.60745397 8.7405518 2.72758967 13 5 C13 6.32 13 7.64 13 9 C12.34 9 11.68 9 11 9 C11.04125 9.78375 11.0825 10.5675 11.125 11.375 C11 14 11 14 9 16 C4.00845374 15.71202618 0.34048131 14.43490415 -4 12 C-4 10.68 -4 9.36 -4 8 C3.42857143 9 3.42857143 9 7 10 C4.63379989 7.38472619 2.057952 5.73559438 -1 4 C-0.67 2.68 -0.34 1.36 0 0 Z " fill="#0B5F9F" transform="translate(37,117)"/>
<path d="M0 0 C2.17932584 2.02741572 3.70958018 4.3241944 5 7 C4.69884586 10.16211846 3.71576448 11.35215477 1.39453125 13.453125 C-0.3765916 14.82772781 -1.96711187 16.049206 -4 17 C-4.99 16.67 -5.98 16.34 -7 16 C-6.65652573 12.79424013 -6.0292146 12.02483241 -3.5 9.875 C-2.675 9.25625 -1.85 8.6375 -1 8 C-0.67 7.34 -0.34 6.68 0 6 C-1.0725 6.639375 -2.145 7.27875 -3.25 7.9375 C-5.80822182 9.40601273 -8.05340886 10.52854542 -11 11 C-11 7 -11 7 -9.35546875 5.078125 C-8.64003906 4.47484375 -7.92460937 3.8715625 -7.1875 3.25 C-6.47980469 2.63640625 -5.77210938 2.0228125 -5.04296875 1.390625 C-3 0 -3 0 0 0 Z " fill="#0B5F9F" transform="translate(342,81)"/>
<path d="M0 0 C0.99 0.33 1.98 0.66 3 1 C2.625 2.9375 2.625 2.9375 2 5 C1.01 5.495 1.01 5.495 0 6 C0.33 6.99 0.66 7.98 1 9 C2.32 9 3.64 9 5 9 C4.67 7.02 4.34 5.04 4 3 C4.99 2.67 5.98 2.34 7 2 C8.5625 3.0625 8.5625 3.0625 10 5 C9.87746086 8.43109583 9.62380951 10.98220554 7.8125 13.9375 C5.03088363 15.5681027 3.16707399 15.44339036 0 15 C-2.875 13.375 -2.875 13.375 -5 11 C-5.625 8.0625 -5.625 8.0625 -5 5 C-2.5 2.125 -2.5 2.125 0 0 Z " fill="#0B5F9F" transform="translate(34,131)"/>
<path d="M0 0 C0.99 0 1.98 0 3 0 C3 12.54 3 25.08 3 38 C2.01 37.67 1.02 37.34 0 37 C-0.03867188 35.35451172 -0.03867188 35.35451172 -0.078125 33.67578125 C-0.1344269 32.22131552 -0.19177377 30.76688997 -0.25 29.3125 C-0.26417969 28.59126953 -0.27835938 27.87003906 -0.29296875 27.12695312 C-0.52342505 22.0799601 -1.59706287 19.88615421 -5 16 C-5 14.68 -5 13.36 -5 12 C-3.35 12 -1.7 12 0 12 C0 8.04 0 4.08 0 0 Z M-2 14 C-1.34 15.32 -0.68 16.64 0 18 C0.33 16.68 0.66 15.36 1 14 C0.01 14 -0.98 14 -2 14 Z " fill="#06609F" transform="translate(188,138)"/>
<path d="M0 0 C3.3 0.66 6.6 1.32 10 2 C10.34615998 7.65394631 9.43425238 11.03006806 7 16 C6.01 15.67 5.02 15.34 4 15 C4.875 7.25 4.875 7.25 6 5 C5.01 5 4.02 5 3 5 C2.34 7.97 1.68 10.94 1 14 C-0.32 14 -1.64 14 -3 14 C-2.88512252 12.41590006 -2.75765492 10.83271037 -2.625 9.25 C-2.55539063 8.36828125 -2.48578125 7.4865625 -2.4140625 6.578125 C-2 4 -2 4 0 0 Z " fill="#0B5F9F" transform="translate(241,24)"/>
<path d="M0 0 C0 0.99 0 1.98 0 3 C-1.23133667 3.24907104 -1.23133667 3.24907104 -2.48754883 3.50317383 C-5.58759935 4.13208423 -8.68694919 4.7643211 -11.78588867 5.39868164 C-13.76495372 5.80279142 -15.74477351 6.20319934 -17.72460938 6.60351562 C-24.50685463 7.99430516 -31.19090282 9.5021926 -37.8347168 11.45581055 C-40 12 -40 12 -43 12 C-43 11.01 -43 10.02 -43 9 C-12.27074236 0 -12.27074236 0 0 0 Z " fill="#0B5F9E" transform="translate(234,244)"/>
<path d="M0 0 C7.26 0 14.52 0 22 0 C22 3.63 22 7.26 22 11 C20.35 11 18.7 11 17 11 C17 10.34 17 9.68 17 9 C17.99 8.67 18.98 8.34 20 8 C20 6.35 20 4.7 20 3 C14.06 2.67 8.12 2.34 2 2 C2 4.31 2 6.62 2 9 C2.99 9 3.98 9 5 9 C5 9.66 5 10.32 5 11 C3.35 11 1.7 11 0 11 C0 7.37 0 3.74 0 0 Z " fill="#06609F" transform="translate(189,99)"/>
<path d="M0 0 C0.99 0 1.98 0 3 0 C3.103125 0.598125 3.20625 1.19625 3.3125 1.8125 C3.82693928 4.0389487 3.82693928 4.0389487 5.375 5.375 C7.67890428 7.67890428 8.79417873 9.98544683 10 13 C9.6875 15.875 9.6875 15.875 9 18 C4.83084722 16.61028241 4.30488279 14.50431741 2.25 10.6875 C1.61578125 9.53636719 0.9815625 8.38523437 0.328125 7.19921875 C-1 4 -1 4 -0.703125 1.58203125 C-0.47109375 1.05996094 -0.2390625 0.53789063 0 0 Z " fill="#0B5F9F" transform="translate(112,35)"/>
<path d="M0 0 C1.32 0 2.64 0 4 0 C4 0.66 4 1.32 4 2 C3.01 2 2.02 2 1 2 C1.57584432 4.38564077 2.22227595 6.66682784 3 9 C1.68 9.33 0.36 9.66 -1 10 C-1 12.64 -1 15.28 -1 18 C-0.34 18 0.32 18 1 18 C0.67 18.99 0.34 19.98 0 21 C-1.65 20.67 -3.3 20.34 -5 20 C-4.649375 19.46375 -4.29875 18.9275 -3.9375 18.375 C-2.7462479 15.95758409 -2.7462479 15.95758409 -3.5 13.0625 C-4.06199715 9.62026747 -3.53476671 8.06953341 -2 5 C-3.32 4.34 -4.64 3.68 -6 3 C-6 2.34 -6 1.68 -6 1 C-3.03 1.495 -3.03 1.495 0 2 C0 1.34 0 0.68 0 0 Z " fill="#0B5F9E" transform="translate(166,244)"/>
<path d="M0 0 C1.32 0.33 2.64 0.66 4 1 C3.7159949 3.06356895 3.42246648 5.1258285 3.125 7.1875 C2.96257812 8.33605469 2.80015625 9.48460937 2.6328125 10.66796875 C2.05939755 13.68724625 1.25240957 16.20575848 0 19 C-0.99 19 -1.98 19 -3 19 C-3.19300422 13.49937959 -2.73016669 9.29227458 -1 4 C-0.65864073 2.66869885 -0.32074044 1.33641852 0 0 Z " fill="#095F9F" transform="translate(236,18)"/>
<path d="M0 0 C0.99 0.33 1.98 0.66 3 1 C2.67 2.32 2.34 3.64 2 5 C1.01 5 0.02 5 -1 5 C-1.2475 5.60199219 -1.495 6.20398438 -1.75 6.82421875 C-3.20336161 9.35397631 -4.52445559 10.30624044 -7 11.8125 C-7.70125 12.25207031 -8.4025 12.69164063 -9.125 13.14453125 C-9.74375 13.42683594 -10.3625 13.70914063 -11 14 C-11.66 13.67 -12.32 13.34 -13 13 C-13 11.68 -13 10.36 -13 9 C-11.1015625 7.296875 -11.1015625 7.296875 -8.625 5.75 C-7.81289063 5.22921875 -7.00078125 4.7084375 -6.1640625 4.171875 C-4 3 -4 3 -2 3 C-1.34 2.01 -0.68 1.02 0 0 Z " fill="#0B5F9F" transform="translate(352,89)"/>
<path d="M0 0 C0 0.66 0 1.32 0 2 C-4.37483479 2.81339123 -8.74989641 3.62555593 -13.125 4.4375 C-14.3625 4.66759766 -15.6 4.89769531 -16.875 5.13476562 C-18.67324219 5.46831055 -18.67324219 5.46831055 -20.5078125 5.80859375 C-21.60754395 6.01282959 -22.70727539 6.21706543 -23.84033203 6.42749023 C-26.88935866 6.97995256 -29.94222968 7.49842898 -33 8 C-33.33 7.34 -33.66 6.68 -34 6 C-27.82335789 3.73550908 -21.81542753 2.26681896 -15.3125 1.3125 C-14.49716797 1.18294922 -13.68183594 1.05339844 -12.84179688 0.91992188 C-8.51913572 0.25946678 -4.38726885 -0.14884111 0 0 Z " fill="#0B5F9E" transform="translate(282,247)"/>
<path d="M0 0 C0.99 0.103125 1.98 0.20625 3 0.3125 C5 3.3125 5 3.3125 4.6875 5.9375 C4 8.3125 4 8.3125 3 9.3125 C0.0625 9.5 0.0625 9.5 -3 9.3125 C-5 7.3125 -5 7.3125 -5.25 4.8125 C-4.86676958 0.9801958 -3.75087075 0.3907157 0 0 Z M-1 2.3125 C-1.33 3.6325 -1.66 4.9525 -2 6.3125 C-1.01 6.3125 -0.02 6.3125 1 6.3125 C1 5.3225 1 4.3325 1 3.3125 C0.34 2.9825 -0.32 2.6525 -1 2.3125 Z " fill="#06609F" transform="translate(209,166.6875)"/>
<path d="M0 0 C3.10009769 1.38238352 5.28263873 2.98578859 7.6875 5.375 C8.28949219 5.96023438 8.89148438 6.54546875 9.51171875 7.1484375 C11.10135013 9.12608914 11.5905426 10.5214179 12 13 C8.86340338 11.57298983 6.37619467 9.85240215 3.75 7.625 C3.04359375 7.03976562 2.3371875 6.45453125 1.609375 5.8515625 C0 4 0 4 0 0 Z " fill="#0B5F9F" transform="translate(299,337)"/>
<path d="M0 0 C3.69230769 0.69230769 3.69230769 0.69230769 5 2 C5.04080783 3.99958364 5.04254356 6.00045254 5 8 C3.35 8.33 1.7 8.66 0 9 C-2 6 -2 6 -1.6875 3.375 C-1 1 -1 1 0 0 Z " fill="#0B5F9E" transform="translate(223,305)"/>
<path d="M0 0 C3.57416264 0.49641148 6.69252492 1.58251068 10 3 C9.67 3.99 9.34 4.98 9 6 C5.37 6 1.74 6 -2 6 C-1 1 -1 1 0 0 Z " fill="#0B5F9E" transform="translate(143,248)"/>
<path d="M0 0 C0 1.32 0 2.64 0 4 C-2.87354245 6.17457267 -4.36436591 7 -8 7 C-8.33 5.35 -8.66 3.7 -9 2 C-5.5647952 -0.29013653 -4.014669 -0.17842973 0 0 Z " fill="#0B5F9E" transform="translate(185,244)"/>
<path d="M0 0 C0.33 0.66 0.66 1.32 1 2 C-0.625 4 -0.625 4 -3 6 C-6.25 6.25 -6.25 6.25 -9 6 C-9 4.35 -9 2.7 -9 1 C-6.04335481 -0.4783226 -3.25770263 -0.06032783 0 0 Z " fill="#0B5F9E" transform="translate(132,244)"/>
<path d="M0 0 C1.65 0.33 3.3 0.66 5 1 C5 2.98 5 4.96 5 7 C3.1875 7.6875 3.1875 7.6875 1 8 C-0.75 6.5625 -0.75 6.5625 -2 5 C-1.34 3.35 -0.68 1.7 0 0 Z " fill="#0B5F9E" transform="translate(189,314)"/>
<path d="M0 0 C-3.48187753 2.32125169 -6.87171039 3.15122685 -10.875 4.125 C-11.58269531 4.30675781 -12.29039062 4.48851562 -13.01953125 4.67578125 C-16.74802173 5.59922489 -20.1557375 6.22613309 -24 6 C-21.20501276 3.20501276 -17.98031746 2.77749616 -14.25 1.875 C-13.54617188 1.69324219 -12.84234375 1.51148438 -12.1171875 1.32421875 C-7.98934355 0.30376662 -4.28569306 -0.20215533 0 0 Z " fill="#0B5F9E" transform="translate(318,250)"/>
<path d="M0 0 C0 2.31 0 4.62 0 7 C-1.32 7 -2.64 7 -4 7 C-4 6.34 -4 5.68 -4 5 C-4.99 5 -5.98 5 -7 5 C-7 3.68 -7 2.36 -7 1 C-4.50935112 0.31292445 -2.62113708 0 0 0 Z " fill="#095F9F" transform="translate(92,326)"/>
<path d="M0 0 C1.65 0.33 3.3 0.66 5 1 C4.67 2.65 4.34 4.3 4 6 C2.35 5.67 0.7 5.34 -1 5 C-0.67 3.35 -0.34 1.7 0 0 Z " fill="#0B5F9E" transform="translate(189,305)"/>
<path d="M0 0 C2.64 0 5.28 0 8 0 C8 1.32 8 2.64 8 4 C5.36 4 2.72 4 0 4 C0 2.68 0 1.36 0 0 Z " fill="#0B5F9F" transform="translate(204,25)"/>
<path d="M0 0 C0 0.66 0 1.32 0 2 C-0.99 2.495 -0.99 2.495 -2 3 C-2.33 3.99 -2.66 4.98 -3 6 C-5.97 5.505 -5.97 5.505 -9 5 C-9.33 4.01 -9.66 3.02 -10 2 C-3.375 0 -3.375 0 0 0 Z " fill="#0B5F9E" transform="translate(208,255)"/>
<path d="M0 0 C1.65 0 3.3 0 5 0 C4.67 0.99 4.34 1.98 4 3 C3.01 3 2.02 3 1 3 C1.33 5.31 1.66 7.62 2 10 C1.34 10 0.68 10 0 10 C-1.36952673 7.26094655 -1.12621361 5.02912668 -1 2 C-0.67 1.34 -0.34 0.68 0 0 Z " fill="#0B5F9E" transform="translate(94,251)"/>
<path d="M0 0 C2.31 0 4.62 0 7 0 C6.67 1.32 6.34 2.64 6 4 C3.69 4 1.38 4 -1 4 C-0.67 2.68 -0.34 1.36 0 0 Z " fill="#0B5F9F" transform="translate(216,379)"/>
<path d="M0 0 C0.91007813 0.10183594 1.82015625 0.20367187 2.7578125 0.30859375 C3.45648438 0.39238281 4.15515625 0.47617188 4.875 0.5625 C4.545 1.5525 4.215 2.5425 3.875 3.5625 C2.616875 3.583125 1.35875 3.60375 0.0625 3.625 C-0.64519531 3.63660156 -1.35289062 3.64820313 -2.08203125 3.66015625 C-4.125 3.5625 -4.125 3.5625 -7.125 2.5625 C-7.125 1.9025 -7.125 1.2425 -7.125 0.5625 C-4.50184968 -0.74907516 -2.89466564 -0.33399988 0 0 Z " fill="#0B5F9E" transform="translate(242.125,252.4375)"/>
<path d="M0 0 C2.31 0.33 4.62 0.66 7 1 C7 2.32 7 3.64 7 5 C4.03 4.505 4.03 4.505 1 4 C0.67 2.68 0.34 1.36 0 0 Z " fill="#0B5F9F" transform="translate(145,359)"/>
<path d="M0 0 C0.99 0 1.98 0 3 0 C3 1.32 3 2.64 3 4 C2.34 4 1.68 4 1 4 C0.67 4.99 0.34 5.98 0 7 C-0.99 7 -1.98 7 -3 7 C-3 5.68 -3 4.36 -3 3 C-2.34 3 -1.68 3 -1 3 C-0.67 2.01 -0.34 1.02 0 0 Z " fill="#0B5F9E" transform="translate(340,326)"/>
<path d="M0 0 C3.63 0 7.26 0 11 0 C11 0.99 11 1.98 11 3 C9.54176788 3.0270043 8.08339325 3.04639787 6.625 3.0625 C5.81289062 3.07410156 5.00078125 3.08570313 4.1640625 3.09765625 C2 3 2 3 0 2 C0 1.34 0 0.68 0 0 Z " fill="#0B5F9E" transform="translate(181,270)"/>
<path d="M0 0 C0.66 0 1.32 0 2 0 C2.33 0.99 2.66 1.98 3 3 C5.00016466 4.20882096 5.00016466 4.20882096 7 5 C4.04335481 6.4783226 1.25770263 6.06032783 -2 6 C-1.125 1.125 -1.125 1.125 0 0 Z " fill="#0B5F9E" transform="translate(218,268)"/>
<path d="M0 0 C0 0.99 0 1.98 0 3 C-6.96428571 5.27678571 -6.96428571 5.27678571 -11 4 C-9.73760288 3.13341385 -8.46472499 2.28207941 -7.1875 1.4375 C-6.47980469 0.96183594 -5.77210937 0.48617188 -5.04296875 -0.00390625 C-3 -1 -3 -1 0 0 Z " fill="#0B5F9E" transform="translate(131,269)"/>
<path d="M0 0 C2.0625 0.4375 2.0625 0.4375 4 1 C2.35 2.65 0.7 4.3 -1 6 C-3.5 4.625 -3.5 4.625 -6 3 C-6 2.34 -6 1.68 -6 1 C-4.7934375 1.0309375 -4.7934375 1.0309375 -3.5625 1.0625 C-1.06645115 1.29633621 -1.06645115 1.29633621 0 0 Z " fill="#0B5F9E" transform="translate(274,252)"/>
<path d="M0 0 C1.32 0.33 2.64 0.66 4 1 C2.68 2.65 1.36 4.3 0 6 C-1.98 5.34 -3.96 4.68 -6 4 C-6 3.34 -6 2.68 -6 2 C-4.35 2 -2.7 2 -1 2 C-0.67 1.34 -0.34 0.68 0 0 Z " fill="#0B5F9E" transform="translate(113,252)"/>
<path d="M0 0 C0.99 0 1.98 0 3 0 C3 0.66 3 1.32 3 2 C2.01 2.495 2.01 2.495 1 3 C0.67 3.99 0.34 4.98 0 6 C-1.98 5.34 -3.96 4.68 -6 4 C-6 3.01 -6 2.02 -6 1 C-4.7934375 1.0309375 -4.7934375 1.0309375 -3.5625 1.0625 C-1.06645115 1.29633621 -1.06645115 1.29633621 0 0 Z " fill="#0B5F9E" transform="translate(97,244)"/>
<path d="M0 0 C0 1.32 0 2.64 0 4 C-2.64 4 -5.28 4 -8 4 C-7.67 3.01 -7.34 2.02 -7 1 C-4 0 -4 0 0 0 Z " fill="#06609F" transform="translate(242,364)"/>
<path d="M0 0 C3.37462715 0.54723683 5.08235 1.0549 8 3 C8 3.66 8 4.32 8 5 C5 6 5 6 2.3125 4.75 C1.549375 4.1725 0.78625 3.595 0 3 C0 2.01 0 1.02 0 0 Z " fill="#06609F" transform="translate(103,360)"/>
<path d="M0 0 C0 3 0 3 -1.25 4.6875 C-3 6 -3 6 -7 6 C-7 3 -7 3 -5.75 1.3125 C-4 0 -4 0 0 0 Z " fill="#06609F" transform="translate(318,325)"/>
<path d="M0 0 C0.99 0.33 1.98 0.66 3 1 C1.35 2.65 -0.3 4.3 -2 6 C-4.5 4.625 -4.5 4.625 -7 3 C-7 2.34 -7 1.68 -7 1 C-5.824375 1.309375 -5.824375 1.309375 -4.625 1.625 C-3.75875 1.74875 -2.8925 1.8725 -2 2 C-1.34 1.34 -0.68 0.68 0 0 Z " fill="#0B5F9E" transform="translate(309,244)"/>
<path d="M0 0 C0.66 0.33 1.32 0.66 2 1 C1.875 2.8125 1.875 2.8125 1 5 C-2.0625 6.75 -2.0625 6.75 -5 8 C-5 7.34 -5 6.68 -5 6 C-4.34 5.67 -3.68 5.34 -3 5 C-2.835 4.34 -2.67 3.68 -2.5 3 C-2.335 2.34 -2.17 1.68 -2 1 C-1.34 0.67 -0.68 0.34 0 0 Z " fill="#0B5F9E" transform="translate(246,244)"/>
<path d="M0 0 C1.65 0.33 3.3 0.66 5 1 C4.34 2.32 3.68 3.64 3 5 C1.68 4.34 0.36 3.68 -1 3 C-0.67 2.01 -0.34 1.02 0 0 Z " fill="#0B5F9E" transform="translate(193,385)"/>
<path d="M0 0 C1.32 0 2.64 0 4 0 C4.33 0.99 4.66 1.98 5 3 C3.35 3.33 1.7 3.66 0 4 C0 2.68 0 1.36 0 0 Z " fill="#06609F" transform="translate(107,341)"/>
<path d="M0 0 C1.32 0 2.64 0 4 0 C4 1.32 4 2.64 4 4 C2.68 4 1.36 4 0 4 C0 2.68 0 1.36 0 0 Z " fill="#0B5F9F" transform="translate(277,350)"/>
<path d="M0 0 C0.33 0.66 0.66 1.32 1 2 C0.67 2.99 0.34 3.98 0 5 C-1.32 4.67 -2.64 4.34 -4 4 C-3.67 3.01 -3.34 2.02 -3 1 C-2.01 0.67 -1.02 0.34 0 0 Z " fill="#0B5F9E" transform="translate(99,263)"/>
<path d="M0 0 C0.99 0.33 1.98 0.66 3 1 C3 1.99 3 2.98 3 4 C1.68 4 0.36 4 -1 4 C-0.67 2.68 -0.34 1.36 0 0 Z " fill="#0B5F9E" transform="translate(197,245)"/>
<path d="M0 0 C-4.43076923 2.09230769 -4.43076923 2.09230769 -7.3125 1.625 C-7.869375 1.41875 -8.42625 1.2125 -9 1 C-5.57367167 -0.61798838 -3.61944899 -1.34053666 0 0 Z " fill="#0B5F9E" transform="translate(284,271)"/>
<path d="M0 0 C0.99 0.33 1.98 0.66 3 1 C2.67 1.99 2.34 2.98 2 4 C0.68 3.67 -0.64 3.34 -2 3 C-1.34 2.01 -0.68 1.02 0 0 Z " fill="#0B5F9E" transform="translate(205,270)"/>
<path d="M0 0 C0.99 0.33 1.98 0.66 3 1 C2.01 2.485 2.01 2.485 1 4 C0.01 4 -0.98 4 -2 4 C-2 3.01 -2 2.02 -2 1 C-1.34 0.67 -0.68 0.34 0 0 Z " fill="#0B5F9E" transform="translate(156,262)"/>
<path d="M0 0 C1.32 0 2.64 0 4 0 C4 0.99 4 1.98 4 3 C2.35 2.67 0.7 2.34 -1 2 C-0.67 1.34 -0.34 0.68 0 0 Z " fill="#0B5F9E" transform="translate(303,271)"/>
<path d="M0 0 C0.99 0.33 1.98 0.66 3 1 C2.67 1.99 2.34 2.98 2 4 C1.01 4 0.02 4 -1 4 C-0.67 2.68 -0.34 1.36 0 0 Z " fill="#0B5F9E" transform="translate(241,270)"/>
<path d="M0 0 C0.99 0.33 1.98 0.66 3 1 C2.67 1.99 2.34 2.98 2 4 C1.01 4 0.02 4 -1 4 C-0.67 2.68 -0.34 1.36 0 0 Z " fill="#0B5F9E" transform="translate(110,245)"/>
<path d="M0 0 C0.66 0 1.32 0 2 0 C2 1.32 2 2.64 2 4 C1.01 4 0.02 4 -1 4 C-0.67 2.68 -0.34 1.36 0 0 Z " fill="#0B5F9E" transform="translate(259,254)"/>
<path d="M0 0 C0.99 0 1.98 0 3 0 C3.33 1.32 3.66 2.64 4 4 C3.01 4.495 3.01 4.495 2 5 C1.34 3.35 0.68 1.7 0 0 Z " fill="#0B5F9E" transform="translate(294,245)"/>
<path d="M0 0 C1.32 0 2.64 0 4 0 C4 0.99 4 1.98 4 3 C2.68 2.67 1.36 2.34 0 2 C0 1.34 0 0.68 0 0 Z " fill="#0B5F9E" transform="translate(241,151)"/>
<path d="M0 0 C0.66 0 1.32 0 2 0 C2 1.32 2 2.64 2 4 C1.01 4 0.02 4 -1 4 C-0.67 2.68 -0.34 1.36 0 0 Z " fill="#0B5F9E" transform="translate(311,254)"/>
<path d="M0 0 C0.33 0.66 0.66 1.32 1 2 C0.67 2.99 0.34 3.98 0 5 C-0.66 5 -1.32 5 -2 5 C-2 3.68 -2 2.36 -2 1 C-1.34 0.67 -0.68 0.34 0 0 Z " fill="#0B5F9E" transform="translate(259,244)"/>
<path d="M0 0 C0.99 0 1.98 0 3 0 C2.67 1.32 2.34 2.64 2 4 C1.34 3.67 0.68 3.34 0 3 C0 2.01 0 1.02 0 0 Z " fill="#0B5F9E" transform="translate(155,151)"/>
<path d="M0 0 C0.66 0 1.32 0 2 0 C1.67 1.32 1.34 2.64 1 4 C0.34 4 -0.32 4 -1 4 C-0.67 2.68 -0.34 1.36 0 0 Z " fill="#0B5F9E" transform="translate(233,248)"/>
</svg>
